<svg xmlns="http://www.w3.org/2000/svg" width="29.164" height="27.703" viewBox="0 0 29.164 27.703">
  <g id="Group_15084" data-name="Group 15084" transform="translate(3.695 0.876)">
    <path id="Path_204062" data-name="Path 204062" d="M175.85,153.667a14.088,14.088,0,0,0-2.887-9.711,10.38,10.38,0,0,0-.879-.829,4.047,4.047,0,0,0,.7-.226,9.739,9.739,0,0,0,1.425-1.015,2.983,2.983,0,0,1,1.579-.693,4.037,4.037,0,0,0-2.488-.094,18.583,18.583,0,0,1-2.472.517,4.889,4.889,0,0,1-1.409-.1,13.845,13.845,0,0,0-9.015.006,4.835,4.835,0,0,1-1.379.094,18.544,18.544,0,0,1-2.474-.517,4.045,4.045,0,0,0-2.486.094,3.011,3.011,0,0,1,1.581.693,9.619,9.619,0,0,0,1.423,1.015,4.219,4.219,0,0,0,.687.222,9.953,9.953,0,0,0-.887.833,14.486,14.486,0,0,0-2.773,9.711,14.256,14.256,0,0,0,2.889,9.781,10.1,10.1,0,0,0,7.917,3.215,10.215,10.215,0,0,0,8.15-3.215A14.579,14.579,0,0,0,175.85,153.667Zm-5.94,7.9A5.1,5.1,0,0,1,165,164.241v0a5.14,5.14,0,0,1-4.935-2.681,17.045,17.045,0,0,1-1.443-7.9,16.832,16.832,0,0,1,1.419-7.823,5.122,5.122,0,0,1,4.913-2.61,5.176,5.176,0,0,1,4.937,2.61,16.638,16.638,0,0,1,1.445,7.823A17.3,17.3,0,0,1,169.91,161.563Z" transform="translate(-154.055 -140.739)" fill="none" stroke="#933" stroke-miterlimit="10" stroke-width="1.75"/>
  </g>
</svg>
