<svg xmlns="http://www.w3.org/2000/svg" width="19.378" height="17.764" viewBox="0 0 19.378 17.764">
  <path id="Path_199885" data-name="Path 199885" d="M1098.288,950.184h-1.615V951.8h-1.615v1.613h3.23Zm1.615,1.617v1.613h.808v2.423h-16.149v-2.423h3.229v-3.23h-1.615V951.8h-3.229v14.225a1.924,1.924,0,0,0,1.922,1.922H1099.9a2.424,2.424,0,0,0,2.422-2.422V951.8Zm-11.3,14.532h-3.73a.308.308,0,0,1-.307-.307V962.3h4.037Zm0-5.652h-4.037v-3.23h4.037Zm6.459,5.652h-4.844V962.3h4.844Zm0-5.652h-4.844v-3.23h4.844Zm5.653,4.845a.808.808,0,0,1-.808.807h-3.23V962.3h4.038Zm0-4.845h-4.038v-3.23h4.038Zm-7.267-10.5h-1.615V951.8h-2.423v1.613h4.038Z" transform="translate(-1082.947 -950.184)"/>
</svg>
