<svg xmlns="http://www.w3.org/2000/svg" width="46.79" height="46.789" viewBox="0 0 46.79 46.789">
  <g id="Group_15218" data-name="Group 15218" transform="translate(7837.5 21620.5)">
    <circle id="Ellipse_409" data-name="Ellipse 409" cx="22.395" cy="22.395" r="22.395" transform="translate(-7836.5 -21619.5)" fill="#f5dfd3" stroke="#000" stroke-miterlimit="10" stroke-width="2"/>
    <path id="Path_199885" data-name="Path 199885" d="M1098.288,950.184h-1.615V951.8h-1.615v1.613h3.23Zm1.615,1.617v1.613h.808v2.423h-16.149v-2.423h3.229v-3.23h-1.615V951.8h-3.229v14.225a1.924,1.924,0,0,0,1.922,1.922H1099.9a2.424,2.424,0,0,0,2.422-2.422V951.8Zm-11.3,14.532h-3.73a.308.308,0,0,1-.307-.307V962.3h4.037Zm0-5.652h-4.037v-3.23h4.037Zm6.459,5.652h-4.844V962.3h4.844Zm0-5.652h-4.844v-3.23h4.844Zm5.653,4.845a.808.808,0,0,1-.808.807h-3.23V962.3h4.038Zm0-4.845h-4.038v-3.23h4.038Zm-7.267-10.5h-1.615V951.8h-2.423v1.613h4.038Z" transform="translate(-8906.947 -22556.184)"/>
  </g>
</svg>
