<svg xmlns="http://www.w3.org/2000/svg" width="22.608" height="20.725" viewBox="0 0 22.608 20.725">
  <path id="Path_204061" data-name="Path 204061" d="M287.548,523.317h-1.883V525.2H283.78v1.883h3.768Zm1.885,1.885v1.883h.943v2.826H271.534v-2.826H275.3v-3.768h-1.885V525.2h-3.766v16.6a2.245,2.245,0,0,0,2.242,2.242h17.54a2.828,2.828,0,0,0,2.826-2.826V525.2Zm-13.188,16.957h-4.352a.359.359,0,0,1-.359-.36v-4.352h4.711Zm0-6.6h-4.711v-3.768h4.711Zm7.535,6.6h-5.651v-4.711h5.651Zm0-6.6h-5.651v-3.768h5.651Zm6.6,5.653a.945.945,0,0,1-.943.943h-3.768v-4.711h4.711Zm0-5.653h-4.711v-3.768h4.711Zm-8.48-12.246h-1.883V525.2h-2.828v1.883H281.9Z" transform="translate(-269.651 -523.317)" fill="#933"/>
</svg>
