<svg xmlns="http://www.w3.org/2000/svg" width="23.189" height="23.188" viewBox="0 0 23.189 23.188">
  <path id="Path_199888" data-name="Path 199888" d="M1015.763,958.1H1007.9a3.86,3.86,0,0,0-2.761-2.761v-3.928a7.739,7.739,0,0,1,6.194,4.757h2.056a9.683,9.683,0,0,0-8.25-6.71v-1.986H1003.2v1.986a9.683,9.683,0,0,0-8.25,6.71h2.056a7.739,7.739,0,0,1,6.194-4.757v3.928a3.861,3.861,0,0,0-2.761,2.761h-7.867v1.933h1.982a9.677,9.677,0,0,0,8.646,8.646v1.982h1.933v-1.982a9.678,9.678,0,0,0,8.646-8.646h1.982Zm-11.595-.966a1.933,1.933,0,1,1-1.932,1.932A1.935,1.935,0,0,1,1004.168,957.134Zm-7.662,2.9h3.935a3.861,3.861,0,0,0,2.761,2.761v3.935A7.737,7.737,0,0,1,996.506,960.033Zm8.629,6.7v-3.935a3.86,3.86,0,0,0,2.761-2.761h3.935A7.737,7.737,0,0,1,1005.135,966.729Z" transform="translate(-992.574 -947.473)"/>
</svg>
