<svg xmlns="http://www.w3.org/2000/svg" width="46.79" height="46.789" viewBox="0 0 46.79 46.789">
  <g id="Group_15217" data-name="Group 15217" transform="translate(7929.5 21620.5)">
    <circle id="Ellipse_408" data-name="Ellipse 408" cx="22.395" cy="22.395" r="22.395" transform="translate(-7928.5 -21619.5)" fill="#f5dfd3" stroke="#000" stroke-miterlimit="10" stroke-width="2"/>
    <path id="Path_199888" data-name="Path 199888" d="M1015.763,958.1H1007.9a3.86,3.86,0,0,0-2.761-2.761v-3.928a7.739,7.739,0,0,1,6.194,4.757h2.056a9.683,9.683,0,0,0-8.25-6.71v-1.986H1003.2v1.986a9.683,9.683,0,0,0-8.25,6.71h2.056a7.739,7.739,0,0,1,6.194-4.757v3.928a3.861,3.861,0,0,0-2.761,2.761h-7.867v1.933h1.982a9.677,9.677,0,0,0,8.646,8.646v1.982h1.933v-1.982a9.678,9.678,0,0,0,8.646-8.646h1.982Zm-11.595-.966a1.933,1.933,0,1,1-1.932,1.932A1.935,1.935,0,0,1,1004.168,957.134Zm-7.662,2.9h3.935a3.861,3.861,0,0,0,2.761,2.761v3.935A7.737,7.737,0,0,1,996.506,960.033Zm8.629,6.7v-3.935a3.86,3.86,0,0,0,2.761-2.761h3.935A7.737,7.737,0,0,1,1005.135,966.729Z" transform="translate(-8910.574 -22556.473)"/>
  </g>
</svg>
