<svg xmlns="http://www.w3.org/2000/svg" width="270.592" height="285.76" viewBox="0 0 270.592 285.76">
  <g id="Group_15387" data-name="Group 15387" transform="translate(-442.5 -1539.645)">
    <g id="Group_15233" data-name="Group 15233" transform="translate(442.5 1539.645)">
      <path id="Path_204286" data-name="Path 204286" d="M677.178,398.612h0c0-70.854,57.274-128.24,127.991-128.24V240.8c78.9,0,142.6,64.12,142.6,143.173,0,76.418-59.9,138.781-135.3,142.3a58.68,58.68,0,0,1-7.305.292,61.073,61.073,0,0,1-7.305-.292c-67.21-3.514-120.685-59.143-120.685-127.656Z" transform="translate(-677.178 -240.8)" fill="#f66"/>
    </g>
    <text id="With_Sherlock_I_was_able_to_think_in_different_directions_it_helped_me_leverage_my_whole_brain_A_millennial_Sherlock_user" data-name="With Sherlock, I was able to think in different directions – it helped me leverage my whole brain
 – A millennial Sherlock user" transform="translate(477.079 1622.664)" fill="#f5dfd3" font-size="20" font-family="NotoSerif, Noto Serif"><tspan x="0" y="21">With Sherlock, I was </tspan><tspan x="0" y="45">able to think in </tspan><tspan x="0" y="69">different directions – </tspan><tspan x="0" y="93">it helped me leverage </tspan><tspan x="0" y="117">my whole brain</tspan><tspan fill="#262626" font-size="12"><tspan x="0" y="141" xml:space="preserve"> – A millennial Sherlock user</tspan></tspan></text>
  </g>
</svg>
