<?xml version="1.0" encoding="utf-8"?>
<!-- Generator: Adobe Illustrator 26.5.0, SVG Export Plug-In . SVG Version: 6.00 Build 0)  -->
<svg version="1.1" id="Layer_1" xmlns="http://www.w3.org/2000/svg" xmlns:xlink="http://www.w3.org/1999/xlink" x="0px" y="0px"
	 viewBox="0 0 280 295.7" style="enable-background:new 0 0 280 295.7;" xml:space="preserve">
<style type="text/css">
	.st0{fill:#FF6666;}
	.st1{fill:#F5DFD3;}
	.st2{font-family:'NotoSerif';}
	.st3{font-size:20.6727px;}
	.st4{fill:#262626;}
	.st5{font-size:15.5046px;}
</style>
<g id="Group_15433" transform="translate(-193.665 -1675)">
	<g id="Group_15233" transform="translate(193.665 1675)">
		<path id="Path_204286" class="st0" d="M0.7,163.2L0.7,163.2C0.6,90.4,59.6,31.2,132.5,31.1c0,0,0.1,0,0.1,0V0.7
			C213.8,0.9,279.5,67,279.3,148.2c-0.2,78-61.3,142.3-139.2,146.5c-2.5,0.3-5,0.4-7.5,0.3c-2.5,0-5-0.1-7.5-0.3
			C55.2,290.9,0.6,233.1,0.7,163.2L0.7,163.2z"/>
	</g>
	<text transform="matrix(1 0 0 1 227.4298 1782.9434)" class="st1 st2 st3">With Sherlock, I was </text>
	<text transform="matrix(1 0 0 1 227.4298 1807.0625)" class="st1 st2 st3">able to think in </text>
	<text transform="matrix(1 0 0 1 227.4298 1831.1807)" class="st1 st2 st3">different directions – </text>
	<text transform="matrix(1 0 0 1 227.4298 1855.2988)" class="st1 st2 st3">it helped me leverage </text>
	<text transform="matrix(1 0 0 1 227.4298 1879.417)" class="st1 st2 st3">my whole brain</text>
	<text transform="matrix(1 0 0 1 227.4298 1903.5352)" class="st4 st2 st5"> – A millennial Sherlock user</text>
</g>
</svg>
