<svg xmlns="http://www.w3.org/2000/svg" width="52.202" height="52.202" viewBox="0 0 52.202 52.202">
  <g id="Chatbot_menu" data-name="Chatbot menu" transform="translate(1.101 1.101)">
    <g id="Group_12554" data-name="Group 12554" transform="translate(-1567.154 1085.283)">
      <path id="Path_143496" data-name="Path 143496" d="M1581.1-1059.927a2.6,2.6,0,0,1,2.6-2.6,2.6,2.6,0,0,1,2.6,2.6,2.6,2.6,0,0,1-2.6,2.6,2.6,2.6,0,0,1-2.6-2.6h0" fill="#f66" stroke="#f66" stroke-miterlimit="10" stroke-width="1"/>
      <path id="Path_143497" data-name="Path 143497" d="M1589.266-1059.927a2.6,2.6,0,0,1,2.6-2.6,2.6,2.6,0,0,1,2.6,2.6,2.6,2.6,0,0,1-2.6,2.6,2.6,2.6,0,0,1-2.6-2.6h0" fill="#f66" stroke="#f66" stroke-miterlimit="10" stroke-width="1"/>
      <path id="Path_143498" data-name="Path 143498" d="M1597.429-1059.927a2.6,2.6,0,0,1,2.6-2.6,2.6,2.6,0,0,1,2.6,2.6,2.6,2.6,0,0,1-2.6,2.6,2.6,2.6,0,0,1-2.6-2.6h0" fill="#f66" stroke="#f66" stroke-miterlimit="10" stroke-width="1"/>
    </g>
    <circle id="Ellipse_276" data-name="Ellipse 276" cx="25" cy="25" r="25" fill="none" stroke="#f66" stroke-miterlimit="10" stroke-width="2.202"/>
  </g>
</svg>
