<svg id="Group_15307" data-name="Group 15307" xmlns="http://www.w3.org/2000/svg" xmlns:xlink="http://www.w3.org/1999/xlink" width="53.81" height="56.69" viewBox="0 0 53.81 56.69">
  <defs>
    <clipPath id="clip-path">
      <path id="Path_204467" data-name="Path 204467" d="M1625.479,526.251h0c-.5,0-.977.014-1.473.042h0a25.419,25.419,0,0,0-23.98,25.379h0a25.441,25.441,0,0,0,25.453,25.422h0v5.846a28.362,28.362,0,0,0,28.357-28.352h0a28.338,28.338,0,0,0-26.912-28.3h0q-.723-.042-1.445-.042Z" transform="translate(-1600.026 -526.251)" fill="none"/>
    </clipPath>
  </defs>
  <g id="Group_15306" data-name="Group 15306" transform="translate(0 0)">
    <path id="Path_204441" data-name="Path 204441" d="M1600.026,551.673h0a25.441,25.441,0,0,0,25.453,25.422v5.846a28.342,28.342,0,0,0,1.445-56.647q-.723-.042-1.445-.042c-.5,0-.977.014-1.473.042a25.419,25.419,0,0,0-23.98,25.379Z" transform="translate(-1600.026 -526.251)" fill="#eb4d53"/>
    <g id="Group_15305" data-name="Group 15305">
      <g id="Group_15304" data-name="Group 15304" clip-path="url(#clip-path)">
        <path id="Path_204442" data-name="Path 204442" d="M1696.4,714.6h0a1.662,1.662,0,0,1-.878-.255l-1.544-.977a22.4,22.4,0,0,0-11.983-3.454h-.68a1.642,1.642,0,1,1,0-3.284h.68a25.655,25.655,0,0,1,13.739,3.963l1.544.963a1.652,1.652,0,0,1-.878,3.043Z" transform="translate(-1665.576 -674.71)" fill="#0a0f22"/>
        <path id="Path_204443" data-name="Path 204443" d="M1663.181,766.922h0l-26.686,4.657-4.207-38.359a8.394,8.394,0,0,1,4.532-8.38l8.13-4.133,15.5,5.365a4.073,4.073,0,0,1,2.734,3.836v37.015Z" transform="translate(-1626.538 -686.297)" fill="#a62a29"/>
        <path id="Path_204444" data-name="Path 204444" d="M1766.2,774.385h0l.949-.368a4.366,4.366,0,0,0,2.521-5.648l-6.176-16.094a4.4,4.4,0,0,0-5.666-2.52l-.949.368a4.393,4.393,0,0,0-2.521,5.662l6.19,16.08a4.382,4.382,0,0,0,5.651,2.519Z" transform="translate(-1726.814 -709.967)" fill="#a62a29"/>
        <path id="Path_204445" data-name="Path 204445" d="M1750.014,722.14h0a4.235,4.235,0,1,1-4.235-4.232,4.224,4.224,0,0,1,4.235,4.232Z" transform="translate(-1716.502 -683.993)" fill="#d2c6ae"/>
        <path id="Path_204446" data-name="Path 204446" d="M1756.324,730.172h0a2.507,2.507,0,1,1-2.507-2.505,2.508,2.508,0,0,1,2.507,2.505Z" transform="translate(-1724.539 -692.024)" fill="#0a0f22"/>
        <path id="Path_204447" data-name="Path 204447" d="M1692.8,665.811h0a20.5,20.5,0,0,0,1.9-3.624,22.717,22.717,0,0,0,1.643-6.794,2.807,2.807,0,0,1,5.595.453,28.6,28.6,0,0,1-2.04,8.451h0c0,.014,0,.028-.014.028v.028a.014.014,0,0,0-.014.014,27.641,27.641,0,0,1-2.351,4.487l-4.717-3.043Z" transform="translate(-1676.38 -630.424)" fill="#663632"/>
        <path id="Path_204448" data-name="Path 204448" d="M1770.17,639.9h-7.465a.51.51,0,1,1,0-1.019h7.465a.51.51,0,1,1,0,1.019Z" transform="translate(-1733.499 -618.947)" fill="#c6c8c9"/>
        <path id="Path_204449" data-name="Path 204449" d="M1709.725,595.951h0a4.138,4.138,0,0,0,.793,2.392,3.027,3.027,0,0,1,.566,1.769l.014,1.543a7.883,7.883,0,0,1-3.484,6.766,6.627,6.627,0,0,1-5.708,1.033c-4.773-1.345-9.575-5.421-9.575-9.639,0,0-.014-4.02-.014-7.644s3.343-6.554,7.493-6.568h2.38a7.508,7.508,0,0,1,7.535,7.474v2.874Z" transform="translate(-1675.985 -575.101)" fill="#663632"/>
        <path id="Path_204450" data-name="Path 204450" d="M1777.941,641.1h0a.434.434,0,0,0,.326-.722,1.626,1.626,0,0,0-1.2-.538,1.606,1.606,0,0,0-1.19.524.439.439,0,0,0,.326.722l1.742.014Z" transform="translate(-1744.67 -619.737)" fill="#001225"/>
        <path id="Path_204451" data-name="Path 204451" d="M1739.69,640.777h0a.435.435,0,0,0,.326-.722,1.6,1.6,0,0,0-1.19-.538,1.615,1.615,0,0,0-1.176.51.44.44,0,0,0,.326.736l1.714.014Z" transform="translate(-1713.203 -619.474)" fill="#001225"/>
        <path id="Path_204452" data-name="Path 204452" d="M1673.778,643.277h0a2.831,2.831,0,1,0,.014,5.662l2.819-.014-.014-5.648Z" transform="translate(-1658.396 -622.569)" fill="#663632"/>
        <path id="Path_204453" data-name="Path 204453" d="M1674.543,590.242h0a1.947,1.947,0,0,1,1.87,1.939V593a1.343,1.343,0,0,0,1.586,1.316,1.358,1.358,0,0,0,1.1-1.359v-1.684a3.536,3.536,0,0,1,1.487-2.873,1.481,1.481,0,0,0,.5-1.826l-.567-1.217a1.081,1.081,0,0,1,.992-1.529l6.374-.014a2.672,2.672,0,0,0,2.677-2.449,2.627,2.627,0,0,0-2.635-2.8l-14.079.028a2.548,2.548,0,0,0-2.493,3.043l1.742,8.549,1.445.057Z" transform="translate(-1658.693 -569.307)" fill="#212026"/>
        <path id="Path_204454" data-name="Path 204454" d="M1675.63,554.765h0a1.206,1.206,0,0,0-.836-.906,14,14,0,0,0-4.278-.651l-2.776.014a3.77,3.77,0,0,0-2.181.693,1.009,1.009,0,0,1-1.374-.255.959.959,0,0,0-.85-.424,10.463,10.463,0,0,0-7.677,4.006,1.983,1.983,0,0,0,.538,2.9,5.723,5.723,0,0,1,2.606,3.6,4.053,4.053,0,0,0,3.173-1.543,2.4,2.4,0,0,1,1.926-.948l6.629-.014h.014a6.273,6.273,0,0,1,3.725,1.217,2.035,2.035,0,0,0,2.734-.283l2.776-3.142a1.821,1.821,0,0,0-.212-2.619c-.269-.226-.538-.425-.822-.623a1.516,1.516,0,0,0-1.43-.142,1.243,1.243,0,0,1-1.686-.878Z" transform="translate(-1645.474 -548.438)" fill="#0a0f22"/>
        <path id="Path_204455" data-name="Path 204455" d="M1732.56,627.178h0a2.314,2.314,0,1,0,2.309,2.307,2.311,2.311,0,0,0-2.309-2.307Zm0,5.648h0a3.333,3.333,0,1,1,3.329-3.341,3.348,3.348,0,0,1-3.329,3.341Z" transform="translate(-1706.356 -608.48)" fill="#c6c8c9"/>
        <path id="Path_204456" data-name="Path 204456" d="M1777.291,627.178h0a2.314,2.314,0,1,0,2.323,2.307,2.308,2.308,0,0,0-2.323-2.307Zm0,5.648h0a3.333,3.333,0,1,1,3.343-3.341,3.345,3.345,0,0,1-3.343,3.341Z" transform="translate(-1743.183 -608.48)" fill="#c6c8c9"/>
        <path id="Path_204457" data-name="Path 204457" d="M1698.01,639.9h-6.785a.51.51,0,1,1,0-1.019h6.785a.51.51,0,1,1,0,1.019Z" transform="translate(-1674.668 -618.947)" fill="#c6c8c9"/>
        <path id="Path_204458" data-name="Path 204458" d="M1763.931,636.149h0a.508.508,0,0,1-.51-.51.623.623,0,0,0-1.247,0,.51.51,0,0,1-1.02,0,1.643,1.643,0,0,1,3.286,0,.508.508,0,0,1-.51.51Z" transform="translate(-1732.642 -614.932)" fill="#c6c8c9"/>
        <path id="Path_204459" data-name="Path 204459" d="M1742.37,680.377h6.657V679.7a.662.662,0,0,0-.651-.665h-5.425a.725.725,0,0,0-.708.906c.028.141.085.3.127.439Z" transform="translate(-1717.059 -651.996)" fill="#f8fbf8"/>
        <path id="Path_204460" data-name="Path 204460" d="M1747.388,693.591h0a3.817,3.817,0,0,0,2.833,1.26h.538a2.525,2.525,0,0,0,2.182-1.26Z" transform="translate(-1721.311 -663.979)" fill="#f8fbf8"/>
        <path id="Path_204461" data-name="Path 204461" d="M1743.83,687.863h5.552a2.435,2.435,0,0,0,.34-1.232h-6.657a4.093,4.093,0,0,0,.765,1.232Z" transform="translate(-1717.753 -658.251)" fill="#0a0f22"/>
        <path id="Path_204462" data-name="Path 204462" d="M1715.515,738.137h0a4.235,4.235,0,1,1-4.235-4.232,4.236,4.236,0,0,1,4.235,4.232Z" transform="translate(-1688.107 -697.159)" fill="#f8fbf8"/>
        <path id="Path_204463" data-name="Path 204463" d="M1686.584,719.51h0a1.635,1.635,0,0,1-1.076-.4l-3-2.576a10.887,10.887,0,0,1-3.8-8.266,1.644,1.644,0,0,1,1.643-1.642h0a1.644,1.644,0,0,1,1.643,1.642,7.562,7.562,0,0,0,2.663,5.775l2.989,2.576a1.624,1.624,0,0,1,.184,2.307,1.649,1.649,0,0,1-1.247.581Z" transform="translate(-1664.786 -674.71)" fill="#f8fbf8"/>
        <path id="Path_204464" data-name="Path 204464" d="M1601.606,780.042h0l-.949-.368a4.378,4.378,0,0,1-2.521-5.648l6.19-16.094a4.376,4.376,0,0,1,5.652-2.505l.949.368a4.367,4.367,0,0,1,2.521,5.648l-6.19,16.08a4.366,4.366,0,0,1-5.652,2.52Z" transform="translate(-1598.235 -714.632)" fill="#a62a29"/>
        <path id="Path_204465" data-name="Path 204465" d="M1836,807.643h0a5.428,5.428,0,0,1,9.887-2.689,6.491,6.491,0,0,1,.637,1.2c.028.071.057.156.085.226a3.186,3.186,0,0,1-5.977,2.208,1.42,1.42,0,0,0-1.374-.934,2.276,2.276,0,0,1-.439-.014Z" transform="translate(-1794.24 -753.685)" fill="#663632"/>
        <path id="Path_204466" data-name="Path 204466" d="M1648.132,807.643h0a5.428,5.428,0,0,1,9.887-2.689,6.476,6.476,0,0,1,.637,1.2c.029.071.057.156.085.226a3.186,3.186,0,0,1-5.977,2.208,1.419,1.419,0,0,0-1.374-.934,2.279,2.279,0,0,1-.439-.014Z" transform="translate(-1639.619 -753.685)" fill="#663632"/>
      </g>
    </g>
  </g>
</svg>
