<svg id="Group_15295" data-name="Group 15295" xmlns="http://www.w3.org/2000/svg" xmlns:xlink="http://www.w3.org/1999/xlink" width="53.81" height="56.771" viewBox="0 0 53.81 56.771">
  <defs>
    <clipPath id="clip-path">
      <path id="Path_204401" data-name="Path 204401" d="M1224.755,117.961h0c-.5,0-.977.014-1.459.043h0a28.371,28.371,0,0,0-26.912,28.336h0a28.386,28.386,0,0,0,28.371,28.392h0v-5.854a25.447,25.447,0,0,0,25.439-25.458h0A25.44,25.44,0,0,0,1226.214,118h0c-.482-.028-.977-.043-1.459-.043Z" transform="translate(-1196.384 -117.961)" fill="none"/>
    </clipPath>
  </defs>
  <g id="Group_15294" data-name="Group 15294" transform="translate(0 0)">
    <path id="Path_204365" data-name="Path 204365" d="M1250.194,143.419h0a25.447,25.447,0,0,1-25.439,25.458v5.854A28.383,28.383,0,0,1,1223.3,118c.482-.028.963-.043,1.459-.043s.977.014,1.459.043a25.44,25.44,0,0,1,23.98,25.416Z" transform="translate(-1196.384 -117.961)" fill="#eb4d53"/>
    <g id="Group_15293" data-name="Group 15293">
      <g id="Group_15292" data-name="Group 15292" clip-path="url(#clip-path)">
        <path id="Path_204366" data-name="Path 204366" d="M1412.276,338.495h0a3.2,3.2,0,0,1-2.875-1.786l-9.108-18.229a3.231,3.231,0,1,1,5.779-2.892l9.094,18.243a3.219,3.219,0,0,1-1.445,4.323,3.09,3.09,0,0,1-1.445.34Z" transform="translate(-1362.97 -278.223)" fill="#a62a29"/>
        <path id="Path_204367" data-name="Path 204367" d="M1321.263,292.494h6.346l3.725,4.664h-13.8l3.725-4.664Z" transform="translate(-1295.526 -260.785)" fill="#a62a29"/>
        <path id="Path_204368" data-name="Path 204368" d="M1312.807,308.148h0a2.413,2.413,0,0,1,1.912,2.523l-.666,9.582v22.354h-21.232a7.973,7.973,0,0,1-2.167-5.457l.014-16.9-.807-11.623a50.2,50.2,0,0,1,22.946-.482Z" transform="translate(-1272.878 -272.696)" fill="#e8352b"/>
        <path id="Path_204369" data-name="Path 204369" d="M1292.171,349.02h0l-.283-4.252h24.264l-.283,4.252Z" transform="translate(-1274.537 -303.561)" fill="#a62a29"/>
        <path id="Path_204370" data-name="Path 204370" d="M1289.946,309.976h0l-.085-1.347a50.2,50.2,0,0,1,22.946-.482,2.446,2.446,0,0,1,1.856,1.829Z" transform="translate(-1272.878 -272.696)" fill="#a62a29"/>
        <path id="Path_204371" data-name="Path 204371" d="M1294.3,394.038h0v-4.252h23.385v4.252Z" transform="translate(-1276.514 -340.4)" fill="#a62a29"/>
        <path id="Path_204372" data-name="Path 204372" d="M1293.213,311.133h0q2.082-.51,4.249-.85v34.969h-1.9a7.973,7.973,0,0,1-2.167-5.457l.014-16.9-.2-2.849v-8.916Z" transform="translate(-1275.621 -275.342)" fill="#a62a29"/>
        <path id="Path_204373" data-name="Path 204373" d="M1383.1,308.176h0q2.125.191,4.249.553v34.8H1383.1V308.176Z" transform="translate(-1349.181 -273.617)" fill="#a62a29"/>
        <path id="Path_204374" data-name="Path 204374" d="M1338.12,307.2h0q2.125-.149,4.249-.128v35.551h-4.249V307.2Z" transform="translate(-1312.369 -272.712)" fill="#a62a29"/>
        <path id="Path_204375" data-name="Path 204375" d="M1387.354,349.02H1383.1v-4.252h4.249v4.252Z" transform="translate(-1349.181 -303.561)" fill="#6a2027"/>
        <path id="Path_204376" data-name="Path 204376" d="M1383.1,389.786h4.249v4.252H1383.1v-4.252Z" transform="translate(-1349.181 -340.4)" fill="#6a2027"/>
        <path id="Path_204377" data-name="Path 204377" d="M1342.369,394.038h-4.249v-4.252h4.249v4.252Z" transform="translate(-1312.369 -340.4)" fill="#6a2027"/>
        <path id="Path_204378" data-name="Path 204378" d="M1342.369,349.02h-4.249v-4.252h4.249v4.252Z" transform="translate(-1312.369 -303.561)" fill="#6a2027"/>
        <path id="Path_204379" data-name="Path 204379" d="M1297.462,312.622h-4.249v-1.488q2.082-.51,4.249-.85v2.339Z" transform="translate(-1275.621 -275.342)" fill="#6a2027"/>
        <path id="Path_204380" data-name="Path 204380" d="M1298.356,394.038H1294.3v-4.252h4.051v4.252Z" transform="translate(-1276.514 -340.4)" fill="#6a2027"/>
        <path id="Path_204381" data-name="Path 204381" d="M1297.463,349.02h-4.207l-.042-.751v-3.5h4.249v4.252Z" transform="translate(-1275.621 -303.561)" fill="#6a2027"/>
        <path id="Path_204382" data-name="Path 204382" d="M1342.369,307.084h0V310h-4.249v-1.12l4.249-1.8Z" transform="translate(-1312.369 -272.724)" fill="#6a2027"/>
        <path id="Path_204383" data-name="Path 204383" d="M1387.353,310.9H1383.1v-2.722q2.125.191,4.249.553V310.9Z" transform="translate(-1349.181 -273.617)" fill="#6a2027"/>
        <path id="Path_204384" data-name="Path 204384" d="M1340.74,327.291h0l3.754,3.2h-6.374l2.62-3.2Z" transform="translate(-1312.369 -289.26)" fill="#6a2027"/>
        <path id="Path_204385" data-name="Path 204385" d="M1344.43,307.162h0v6.861l-6.388-5.117,6.388-1.743Z" transform="translate(-1312.305 -272.788)" fill="#f8fbf8"/>
        <path id="Path_204386" data-name="Path 204386" d="M1338.12,266.682h0l2.436-11.17,6.247,1.375-2.309,10.461a.052.052,0,0,0-.014.043,2.435,2.435,0,0,1-3.853,1.261l-2.507-1.97Z" transform="translate(-1312.369 -230.522)" fill="#f69171"/>
        <path id="Path_204387" data-name="Path 204387" d="M1383.1,310.595h0q2.125.213,4.249.553v2.48l-4.249,3.246v-6.279Z" transform="translate(-1349.181 -275.597)" fill="#6a2027"/>
        <path id="Path_204388" data-name="Path 204388" d="M1369.461,349.257h0a1.289,1.289,0,1,0,1.289-1.29,1.282,1.282,0,0,0-1.289,1.29Z" transform="translate(-1338.016 -306.179)" fill="#6a2027"/>
        <path id="Path_204389" data-name="Path 204389" d="M1369.461,414.092h0a1.289,1.289,0,1,0,1.289-1.29,1.282,1.282,0,0,0-1.289,1.29Z" transform="translate(-1338.016 -359.235)" fill="#6a2027"/>
        <path id="Path_204390" data-name="Path 204390" d="M1314.713,343.294h0V317.043a15,15,0,0,0-2.734-8.633c-.907.142-1.813.326-2.705.525a12.588,12.588,0,0,1,2.974,8.108v26.252Z" transform="translate(-1288.764 -273.809)" fill="#f67c0e"/>
        <path id="Path_204391" data-name="Path 204391" d="M1394.826,311.805h0v32.064h2.479V311.805a6.437,6.437,0,0,0-.368-2.155c-1.02-.213-2.04-.4-3.074-.539a4.311,4.311,0,0,1,.963,2.693Z" transform="translate(-1357.985 -274.383)" fill="#f16713"/>
        <path id="Path_204392" data-name="Path 204392" d="M1303.738,191.885h0V188.4a8.719,8.719,0,0,1,.906-3.671,3.565,3.565,0,0,0,.326-1.489v-2.792a3.486,3.486,0,0,1,3.484-3.5h14.32v10.376a9.431,9.431,0,0,1-9.419,9.441l-3.031-.014a6.9,6.9,0,0,1-6.586-4.862Z" transform="translate(-1284.234 -166.229)" fill="#f69171"/>
        <path id="Path_204393" data-name="Path 204393" d="M1300.507,141.914h4.32a11.42,11.42,0,0,1,7.89,3.161l1.742,1.659a4.657,4.657,0,0,1,4.6,5.372l-1.048,6.79h-4.873a1.053,1.053,0,0,1-1.062-1.063v-1.361a2.855,2.855,0,0,0-1.516-2.041,1.616,1.616,0,0,1-.836-1.885,1.606,1.606,0,0,0-1.53-2.055h-6.36a5.421,5.421,0,0,1-4.235-1.956,3.926,3.926,0,0,1,2.9-6.62Z" transform="translate(-1278.34 -137.562)" fill="#1f242e"/>
        <path id="Path_204394" data-name="Path 204394" d="M1397.568,213.771h0a2.977,2.977,0,0,1,3.017,2.707,2.862,2.862,0,0,1-2.861,3.005h-2.535v-3.331a2.386,2.386,0,0,1,2.379-2.381Z" transform="translate(-1359.07 -196.364)" fill="#f69171"/>
        <path id="Path_204395" data-name="Path 204395" d="M1305.1,229.554h0v-.326a2.011,2.011,0,0,1,2.011-2.013h5.127a1.863,1.863,0,0,1,1.771,1.12,2.109,2.109,0,0,0,1.927,1.219h.269a1.742,1.742,0,0,0,1.742-1.743v-3.643a1.2,1.2,0,0,1,2.408,0v4.323a7.329,7.329,0,0,1-2.819,5.783l-2.847,2.254a6.937,6.937,0,0,1-4.235,1.46h-.113c-.213,0-.411-.014-.623-.028a6.684,6.684,0,0,1-5.978-6.7v-1.7Z" transform="translate(-1284.234 -203.898)" fill="#1f242e"/>
        <path id="Path_204396" data-name="Path 204396" d="M1196.028,339.411h0a3.226,3.226,0,0,1-1.076-6.265l3.116-1.106a10.187,10.187,0,0,0,5.822-5.316l4.745-10.291a3.229,3.229,0,0,1,5.864,2.707l-4.745,10.291a16.736,16.736,0,0,1-9.519,8.689l-3.13,1.106a3.129,3.129,0,0,1-1.077.184Z" transform="translate(-1193.465 -278.842)" fill="#a62a29"/>
        <path id="Path_204397" data-name="Path 204397" d="M1311.89,219.338h0a.431.431,0,0,1-.326-.723,1.6,1.6,0,0,1,1.218-.553,1.625,1.625,0,0,1,1.2.539.433.433,0,0,1-.326.723l-1.771.014Z" transform="translate(-1290.545 -199.875)" fill="#001225"/>
        <path id="Path_204398" data-name="Path 204398" d="M1349.809,219.026h0a.444.444,0,0,1-.34-.737,1.656,1.656,0,0,1,1.218-.539,1.6,1.6,0,0,1,1.19.525.449.449,0,0,1-.326.751Z" transform="translate(-1321.565 -199.62)" fill="#001225"/>
        <path id="Path_204399" data-name="Path 204399" d="M1320.275,259.1h0a.733.733,0,0,0-.623,1.106,3.935,3.935,0,0,0,3.371,1.956,3.885,3.885,0,0,0,3.343-1.9.73.73,0,0,0-.595-1.12l-5.5-.042Z" transform="translate(-1297.173 -233.459)" fill="#0a0f22"/>
        <path id="Path_204400" data-name="Path 204400" d="M1330.823,259.207h0l-5.1-.028v.978a.6.6,0,0,0,.609.6h4.788a2.88,2.88,0,0,0,.3-.425.73.73,0,0,0-.6-1.12Z" transform="translate(-1302.225 -233.522)" fill="#f2f3f3"/>
      </g>
    </g>
  </g>
</svg>
