<svg xmlns="http://www.w3.org/2000/svg" width="46.79" height="46.789" viewBox="0 0 46.79 46.789">
  <g id="Group_15214" data-name="Group 15214" transform="translate(8130.5 21620.5)">
    <circle id="Ellipse_406" data-name="Ellipse 406" cx="22.395" cy="22.395" r="22.395" transform="translate(-8129.5 -21619.5)" fill="#f5dfd3" stroke="#000" stroke-miterlimit="10" stroke-width="2"/>
    <path id="Path_199887" data-name="Path 199887" d="M797.6,947.941v1.854a9.265,9.265,0,1,1-6.558,2.713l-1.311-1.311a11.128,11.128,0,1,0,7.869-3.256Zm0,18.542a7.417,7.417,0,0,0,0-14.834V953.5a5.563,5.563,0,1,1-5.563,5.562h-1.854A7.425,7.425,0,0,0,797.6,966.483Zm3.708-7.417a3.711,3.711,0,0,0-3.708-3.708v1.854a1.855,1.855,0,1,1-1.31,3.164l-1.312,1.311a3.707,3.707,0,0,0,6.33-2.621Z" transform="translate(-8904.475 -22555.941)"/>
  </g>
</svg>
