<svg xmlns="http://www.w3.org/2000/svg" width="805.619" height="577.708" viewBox="0 0 805.619 577.708">
  <g id="Group_15363" data-name="Group 15363" transform="translate(-845.469 -3534.844)">
    <text id="_Sherlock_made_me_reflect_challenge_my_current_thinking_and_present_something_new_that_I_wasn_t_aware_of_" data-name="“Sherlock made me reflect, challenge my current thinking and present something new that I wasn’t aware of…”" transform="translate(1038 3687.079)" font-size="36" font-family="NotoSerif, Noto Serif"><tspan x="0" y="38">“Sherlock made me reflect, </tspan><tspan x="0" y="78">challenge my current thinking and </tspan><tspan x="0" y="118">present something new that I </tspan><tspan x="0" y="158">wasn’t aware of…”</tspan></text>
    <g id="Group_15220" data-name="Group 15220" transform="translate(851.32 3833.606)">
      <path id="Path_204273" data-name="Path 204273" d="M259.953,475.438h0a58.525,58.525,0,0,1,16.9-19.941,86.851,86.851,0,0,1,23.359-12.64,114.748,114.748,0,0,1,52.472-5.741,2.1,2.1,0,0,0,1.913-.409c6.267-5.276,12.578-10.491,19.26-15.092a85.465,85.465,0,0,1,10.391-6.23,59.872,59.872,0,0,1,5.543-2.483c.768-.3,1.573-.594,2.353-.861a113.044,113.044,0,0,0-8.5,11.76,122.943,122.943,0,0,0-8.559,16.058c-.012.049-.043.111-.062.173a2.084,2.084,0,0,0,1.3,2.657,1.864,1.864,0,0,0,.471.093,96.616,96.616,0,0,1,11.742,5.2,79.061,79.061,0,0,1,11.24,7.1l2.607,2.056c.861.693,1.647,1.474,2.477,2.2l1.226,1.115c.409.378.768.787,1.164,1.177.749.8,1.536,1.586,2.273,2.4a57.93,57.93,0,0,1,7.456,10.769,46.988,46.988,0,0,1,4.224,12.281l.489,3.22.186,3.245a41.434,41.434,0,0,1-.328,6.49,46.869,46.869,0,0,1-10.658,23.5,71.1,71.1,0,0,1-20.436,16.659,96.552,96.552,0,0,1-24.883,9.562A115.482,115.482,0,0,1,339,552.9a130.548,130.548,0,0,1-13.389-.706,115.474,115.474,0,0,1-13.215-2.26,97.915,97.915,0,0,1-24.957-9.389A71.76,71.76,0,0,1,266.809,524.1a47.843,47.843,0,0,1-11.017-23.359,42.525,42.525,0,0,1,4.162-25.3Zm-8.069,25.874h0a51.546,51.546,0,0,0,11.847,25.372,75.528,75.528,0,0,0,21.743,17.464,97.754,97.754,0,0,0,12.664,5.809c1.084.39,2.168.817,3.282,1.177l3.313,1.065c2.229.644,4.459,1.257,6.719,1.759a119.832,119.832,0,0,0,13.7,2.329,136.3,136.3,0,0,0,13.866.687,120.3,120.3,0,0,0,27.5-3.313,100.687,100.687,0,0,0,25.868-10.032,73.629,73.629,0,0,0,21.446-17.711A50.579,50.579,0,0,0,425.1,500.5a42.616,42.616,0,0,0,.3-7.054c-.062-1.177-.13-2.353-.223-3.518l-.545-3.487a49.76,49.76,0,0,0-4.663-13.185,61.706,61.706,0,0,0-8.069-11.339c-.786-.848-1.616-1.66-2.415-2.5-.409-.409-.805-.83-1.226-1.226l-1.3-1.146c-.879-.737-1.715-1.555-2.626-2.261l-2.731-2.1a83.079,83.079,0,0,0-11.742-7.2,90.291,90.291,0,0,0-10.67-4.632,99.282,99.282,0,0,1,16.838-30.252l.019-.031a1.016,1.016,0,0,0,.186-.96,1,1,0,0,0-1.282-.644c-1.982.613-3.957,1.226-5.9,1.95-.979.359-1.963.719-2.923,1.127-.96.378-1.913.787-2.873,1.208a90.436,90.436,0,0,0-10.974,5.921c-3.53,2.2-6.936,4.552-10.28,6.955-3.344,2.421-6.682,4.824-9.983,7.289a.368.368,0,0,0-.105.074,2.214,2.214,0,0,0-.57.786,122.384,122.384,0,0,0-25.378-.378,111.675,111.675,0,0,0-26.908,5.747,90.607,90.607,0,0,0-24.406,12.968,62.323,62.323,0,0,0-18.114,21.105,46.879,46.879,0,0,0-4.49,13.407,45.722,45.722,0,0,0-.155,14.175Z" transform="translate(-251.405 -408.925)" fill="#030504"/>
      <path id="Path_204274" data-name="Path 204274" d="M273.058,455.963h0c3.784-1.412,7.487-2.966,11.067-4.725l2.65-1.363,2.607-1.449,2.558-1.523c.83-.533,1.647-1.1,2.5-1.617a60.289,60.289,0,0,0,16.876-16.6.377.377,0,0,1,.514-.105.368.368,0,0,1,.161.452,35.121,35.121,0,0,1-6.533,10.522,49.034,49.034,0,0,1-9.351,8.181c-.867.582-1.759,1.115-2.626,1.678l-2.7,1.542-2.793,1.362c-.941.427-1.883.83-2.842,1.226a49.028,49.028,0,0,1-11.909,3.152.381.381,0,0,1-.174-.737Z" transform="translate(-140.287 -307.147)" fill="#030504"/>
      <path id="Path_204275" data-name="Path 204275" d="M303.627,433.205h0a25.463,25.463,0,0,1-6.862,5.183c-.625.328-1.282.657-1.926.954l-1.994.849-2.056.694c-.694.2-1.369.421-2.075.613a41.147,41.147,0,0,1-8.49,1.22,34.762,34.762,0,0,1-8.521-.613.4.4,0,0,1-.3-.452.432.432,0,0,1,.335-.3c2.793-.334,5.536-.644,8.236-1.071,2.7-.452,5.388-.972,8.007-1.678.644-.186,1.3-.347,1.963-.533l1.932-.613,1.926-.644c.632-.235,1.257-.489,1.9-.706a77.377,77.377,0,0,0,7.475-3.487.359.359,0,0,1,.5.143.379.379,0,0,1-.05.44Z" transform="translate(-147.596 -286.129)" fill="#030504"/>
      <path id="Path_204276" data-name="Path 204276" d="M294.427,412.713h0c-3.908,1.065-7.741,2.26-11.457,3.672l-2.781,1.1-2.731,1.189-2.681,1.276c-.879.452-1.759.941-2.638,1.381a59.74,59.74,0,0,0-18.38,14.912.373.373,0,0,1-.632-.39A35.09,35.09,0,0,1,260.614,426a49.45,49.45,0,0,1,10.094-7.27c.91-.489,1.852-.941,2.762-1.412l2.842-1.276,2.9-1.1c.972-.347,1.963-.644,2.948-.941a48.418,48.418,0,0,1,12.169-2.025.368.368,0,0,1,.378.359.379.379,0,0,1-.285.378Z" transform="translate(-242.652 -393.079)" fill="#030504"/>
      <path id="Path_204277" data-name="Path 204277" d="M256.1,418.167h0a25.187,25.187,0,0,1,7.32-4.5c.675-.285,1.35-.539,2.025-.787l2.056-.644,2.1-.5c.706-.124,1.412-.3,2.118-.409a42.541,42.541,0,0,1,8.59-.427,35.62,35.62,0,0,1,8.41,1.431.372.372,0,0,1,.254.47.362.362,0,0,1-.347.266c-2.805.062-5.573.13-8.3.3-2.731.192-5.444.458-8.131.9-.657.142-1.331.235-1.988.359l-1.994.409-1.982.471c-.656.174-1.3.378-1.963.533a71.028,71.028,0,0,0-7.766,2.768.384.384,0,0,1-.489-.2.391.391,0,0,1,.093-.427Z" transform="translate(-227.652 -398.991)" fill="#030504"/>
    </g>
    <text id="_" data-name=" " transform="translate(976.391 3896.844)" fill="#030504" font-size="12" font-family="SFRounded-Ultralight, SF Pro Rounded" font-weight="100"><tspan x="0" y="0"> </tspan></text>
    <text id="_2" data-name=" " transform="translate(974.51 3937.522)" fill="#030504" font-size="12" font-family="SFRounded-Ultralight, SF Pro Rounded" font-weight="100"><tspan x="0" y="0"> </tspan></text>
    <g id="Group_15222" data-name="Group 15222" transform="translate(1394.282 3867.918)">
      <path id="Path_204278" data-name="Path 204278" d="M536.771,502.473h0a28.045,28.045,0,0,1-1.567,6.391,35.1,35.1,0,0,1-7.425,11.221,57.806,57.806,0,0,1-10.794,8.744,89.506,89.506,0,0,1-12.5,6.608,127.457,127.457,0,0,1-27.329,8.317c-4.707.885-9.426,1.69-14.207,2.18-2.391.235-4.781.489-7.19.625l-1.8.118-2,.118c-1.431.08-2.843.235-4.193.39-1.412,3.474-2.824,7.06-4.093,10.633a1.367,1.367,0,0,0,.842,1.746.886.886,0,0,0,.372.074h.018c4.446.334,8.856.787,13.265,1.393,4.391.607,8.738,1.431,13.048,2.415a121.393,121.393,0,0,1,25.019,8.336c7.878,3.722,15.439,8.354,21.334,14.51a35.033,35.033,0,0,1,6.979,10.355,24.625,24.625,0,0,1,1.9,11.884,27.036,27.036,0,0,1-4.056,11.457A41.9,41.9,0,0,1,514.1,629.5a80,80,0,0,1-22.375,13.042c-16.337,6.41-34.067,9.233-51.7,9.469-17.65.18-35.423-2.2-52.032-7.964a87.986,87.986,0,0,1-23.2-11.983,47.828,47.828,0,0,1-9.227-8.9,30.039,30.039,0,0,1-5.6-11.141,24.243,24.243,0,0,1,.136-12.256,30.137,30.137,0,0,1,2.353-5.809,35.93,35.93,0,0,1,3.524-5.276,49.9,49.9,0,0,1,9.345-8.917,75.842,75.842,0,0,1,11.147-6.886,116.22,116.22,0,0,1,24.864-9,156.476,156.476,0,0,1,26.295-4.038h.019a1.375,1.375,0,0,0,1.177-.886h0l4.149-10.98a1.373,1.373,0,0,0-.8-1.765,1.248,1.248,0,0,0-.353-.1c-14.287-1.43-28.487-4.645-41.579-10.472a76.6,76.6,0,0,1-18.158-11.122c-5.35-4.564-10-10.212-12.051-16.845a24.568,24.568,0,0,1-1.04-10.175,27.091,27.091,0,0,1,3.1-9.828c3.313-6.156,8.54-11.178,14.306-15.278a87.821,87.821,0,0,1,18.944-9.9,131.454,131.454,0,0,1,20.647-5.964h0a1.4,1.4,0,0,0,1.084-1.629,1.474,1.474,0,0,0-.18-.427,73.4,73.4,0,0,0-12.07-14.77,88.388,88.388,0,0,0-7.271-6.155c-.9-.669-1.821-1.319-2.737-1.945,2.545.434,5.072.96,7.58,1.61a84.414,84.414,0,0,1,12.931,4.744,90.16,90.16,0,0,1,22.945,15.241h0a1.365,1.365,0,0,0,.941.372h.074c4.8,0,9.624-.118,14.423.136,4.8.217,9.6.669,14.343,1.294a145.67,145.67,0,0,1,27.936,6.391,92.271,92.271,0,0,1,25.174,12.807,47.579,47.579,0,0,1,9.878,9.648,28.835,28.835,0,0,1,5.487,12.083,25.559,25.559,0,0,1,.254,6.552Zm4.762-7.45h0a33.6,33.6,0,0,0-6.509-14.182,52.68,52.68,0,0,0-10.93-10.59c-8.113-6-17.321-10.063-26.722-13.1-18.671-5.939-38.365-7.685-57.7-6.372a92.755,92.755,0,0,0-23.192-15.315,86.9,86.9,0,0,0-13.383-4.9,85.635,85.635,0,0,0-14.027-2.471,1.356,1.356,0,0,0-1.511,1.214,1.371,1.371,0,0,0,.663,1.295l.025.025c2.626,1.586,5.19,3.27,7.661,5.115a81.661,81.661,0,0,1,7.011,5.964,71.458,71.458,0,0,1,10.54,12.572,131.375,131.375,0,0,0-19.117,5.666,90.7,90.7,0,0,0-19.514,10.2c-6.019,4.273-11.562,9.549-15.166,16.237a29.809,29.809,0,0,0-3.394,10.825,27.375,27.375,0,0,0,1.139,11.3,33.318,33.318,0,0,0,5.214,10.02,49.564,49.564,0,0,0,7.679,8.1A79.519,79.519,0,0,0,389.1,538.144a137.51,137.51,0,0,0,40.675,10.5l-3.214,8.509a159.2,159.2,0,0,0-25.96,3.666,118.591,118.591,0,0,0-25.725,8.887,81.036,81.036,0,0,0-11.8,7.041,53,53,0,0,0-10.206,9.45,37.218,37.218,0,0,0-3.976,5.846,33.671,33.671,0,0,0-2.725,6.626A28.407,28.407,0,0,0,345.882,613a33.742,33.742,0,0,0,6.267,12.788,51.728,51.728,0,0,0,9.971,9.81A92.742,92.742,0,0,0,386.4,648.444c17.222,6.174,35.522,8.645,53.667,8.491,18.158-.2,36.42-3.022,53.525-9.667A84.552,84.552,0,0,0,517.474,633.4a47.946,47.946,0,0,0,9.345-10.67,31.847,31.847,0,0,0,4.8-13.711,29.564,29.564,0,0,0-2.391-14.374,39.85,39.85,0,0,0-8.051-11.785c-6.608-6.769-14.658-11.63-23.043-15.3-16.262-7.06-33.838-10.162-51.252-10.615.861-2.471,1.666-4.96,2.446-7.506,1.078.118,2.1.235,3.078.291l.762.019h.885l1.839-.019c2.446-.018,4.9-.155,7.345-.291a141.665,141.665,0,0,0,14.64-1.629,127.81,127.81,0,0,0,28.506-7.883c9.128-3.827,18.027-8.868,25.137-16.262a38.636,38.636,0,0,0,8.521-12.943,31.768,31.768,0,0,0,1.845-7.748,30.348,30.348,0,0,0-.353-7.958Z" transform="translate(-345.101 -428.076)" fill="#030504"/>
      <path id="Path_204279" data-name="Path 204279" d="M399.592,486.945h0c-5-.9-9.877-1.963-14.658-3.313l-3.567-1.077-3.524-1.2-3.487-1.294c-1.139-.47-2.273-.96-3.431-1.412a74.646,74.646,0,0,1-24.449-16.591.477.477,0,0,0-.669,0,.43.43,0,0,0-.074.57,43.31,43.31,0,0,0,10.379,11.451,61.8,61.8,0,0,0,13.327,7.964c1.2.514,2.409.96,3.6,1.455l3.66,1.294,3.728,1.034c1.251.316,2.508.588,3.759.867a62.357,62.357,0,0,0,15.34,1.2.5.5,0,0,0,.452-.508.481.481,0,0,0-.39-.434Z" transform="translate(-342.207 -252.339)" fill="#030504"/>
      <path id="Path_204280" data-name="Path 204280" d="M349.857,467.168h0a31.985,31.985,0,0,0,9.58,4.824c.861.279,1.721.514,2.582.749l2.644.588,2.669.391c.9.1,1.784.217,2.682.272a51.658,51.658,0,0,0,10.72-.409,43.145,43.145,0,0,0,10.3-2.669.475.475,0,0,0,.273-.625.492.492,0,0,0-.471-.3c-3.505.236-6.936.471-10.361.533s-6.818.037-10.193-.236c-.842-.1-1.7-.136-2.545-.217l-2.508-.316-2.508-.353c-.842-.155-1.666-.334-2.508-.452a91.767,91.767,0,0,1-9.933-2.607.49.49,0,0,0-.607.316.462.462,0,0,0,.18.508Z" transform="translate(-321.43 -229.465)" fill="#030504"/>
      <path id="Path_204281" data-name="Path 204281" d="M370.12,431.985h0c3.821,1.449,7.524,2.96,11.128,4.688.886.452,1.784.861,2.669,1.313l2.62,1.393,2.607,1.449c.842.533,1.666,1.059,2.508,1.573a63.265,63.265,0,0,1,17.458,15.959.486.486,0,0,0,.669.1.46.46,0,0,0,.155-.545,33.783,33.783,0,0,0-6.663-10.571,49.026,49.026,0,0,0-9.617-8.081c-.88-.551-1.784-1.059-2.688-1.61l-2.762-1.468a58.371,58.371,0,0,0-5.76-2.434,46.017,46.017,0,0,0-12.107-2.669.469.469,0,0,0-.508.434.462.462,0,0,0,.291.471Z" transform="translate(-216.697 -412.481)" fill="#030504"/>
      <path id="Path_204282" data-name="Path 204282" d="M401.025,439.107h0a23.757,23.757,0,0,0-6.936-5.239,38.775,38.775,0,0,0-3.994-1.765,37.366,37.366,0,0,0-4.193-1.214,39.671,39.671,0,0,0-8.6-.984,33.17,33.17,0,0,0-8.565,1.04.488.488,0,0,0-.328.588.467.467,0,0,0,.39.353c2.824.371,5.561.669,8.267,1.077,2.706.434,5.369.886,7.995,1.53.663.18,1.313.316,1.976.5l1.945.545,1.938.57c.644.217,1.269.452,1.92.65,2.564.879,5.072,1.938,7.642,3.1a.48.48,0,0,0,.625-.235.473.473,0,0,0-.081-.508Z" transform="translate(-224.15 -418.582)" fill="#030504"/>
    </g>
    <g id="Group_15224" data-name="Group 15224" transform="translate(1505.849 3602.766)">
      <path id="Path_204283" data-name="Path 204283" d="M368.84,466.429h0a.3.3,0,0,0-.409.142,22.034,22.034,0,0,0-1.573,4.583,37.37,37.37,0,0,0-1,9.543,20.19,20.19,0,0,0,.663,4.806.309.309,0,0,0,.241.217.3.3,0,0,0,.359-.241h0c.328-1.579.57-3.127.774-4.688.229-1.542.4-3.091.545-4.651s.291-3.115.384-4.688c.1-1.554.18-3.127.18-4.731a.319.319,0,0,0-.167-.291Zm21.935,24.654h0a.3.3,0,0,0-.266-.335c-2.6-.328-5.2-.483-7.809-.594-.638-.025-1.294-.062-1.944-.062-.31-.012-.675-.012-.954-.025a5.659,5.659,0,0,1-.793-.093,5.532,5.532,0,0,1-2.781-1.462,5.384,5.384,0,0,1-1.5-2.743c-.273-1.244-.5-2.526-.768-3.8-.508-2.533-1.028-5.084-1.679-7.617a.29.29,0,0,0-.279-.235.3.3,0,0,0-.316.291,53.744,53.744,0,0,0,.254,7.865c.111,1.319.291,2.6.483,3.926a7.552,7.552,0,0,0,2.124,4.025,7.433,7.433,0,0,0,4.081,2.007,10.477,10.477,0,0,0,1.146.068c.378-.012.669-.025,1-.037.65-.018,1.307-.08,1.945-.118,2.607-.167,5.2-.4,7.8-.8a.28.28,0,0,0,.254-.266Zm120.154-89h0a8.757,8.757,0,0,0-.675-2.062,9.073,9.073,0,0,0-2.775-3.387,9.369,9.369,0,0,0-4.081-1.678c-.787-.093-1.375-.105-2.05-.142-.656-.037-1.307-.074-1.957-.074-1.307-.025-2.62-.05-3.926-.012a61.481,61.481,0,0,0-7.834.662.291.291,0,0,0-.254.266.309.309,0,0,0,.266.34c2.595.316,5.177.52,7.766.725l3.858.3,1.932.142c.632.05,1.344.1,1.852.174a7.643,7.643,0,0,1,5.394,3.635,8.155,8.155,0,0,1,1.121,3.307c.2,1.294.39,2.576.663,3.864a.324.324,0,0,0,.266.242.308.308,0,0,0,.34-.273c.143-1.307.192-2.613.242-3.914a9.568,9.568,0,0,0-.149-2.118ZM480.182,394h0c1.5-.025,2.935-.155,4.36-.316,1.425-.143,2.836-.334,4.248-.526,1.412-.211,2.824-.4,4.242-.632s2.849-.458,4.291-.824a.278.278,0,0,0,.223-.217.313.313,0,0,0-.223-.384,20.2,20.2,0,0,0-4.415-.558,28.533,28.533,0,0,0-4.428.217,26.487,26.487,0,0,0-4.347.923,18.55,18.55,0,0,0-4.118,1.728.321.321,0,0,0,.167.588Zm22.579,77.126h0l-.241,2.991-.049.75c-.025.254-.05.52-.074.706a4.713,4.713,0,0,1-.279,1.158,5.124,5.124,0,0,1-3.412,3.127,22.625,22.625,0,0,1-2.78.341l-2.991.279-6,.483c-8,.613-16.021,1.1-24.035,1.517-15.717.91-31.46,1.486-47.2,2.105a1.03,1.03,0,0,0-1.87-.086v.012a54.528,54.528,0,0,1-10.4,13.216,42.323,42.323,0,0,1-6.7,5.084,38,38,0,0,1-5.543,2.781,39.535,39.535,0,0,0,3.518-8.707,51.424,51.424,0,0,0,1.771-11.482V485.4a.834.834,0,0,0-.817-.861.843.843,0,0,0-.762.433l-5.3-.012h-4.515a5.786,5.786,0,0,1-1.362-.167,5.714,5.714,0,0,1-4.007-3.381,6.1,6.1,0,0,1-.39-1.295l-.217-1.486c-.143-.991-.316-1.982-.434-2.973A216.652,216.652,0,0,1,377,451.691c-.18-8.007-.062-16.046.341-24.053.18-4,.446-8,.768-12q.241-2.991.545-5.983l.142-1.486a5.275,5.275,0,0,1,.279-1.17,5.213,5.213,0,0,1,1.331-1.969,4.877,4.877,0,0,1,2.062-1.158,5.256,5.256,0,0,1,1.2-.192l1.5-.062,6.013-.291,12.033-.5q12.02-.436,24.071-.613,24.087-.362,48.168.241l12.039.3,6.013.186,3.016.093,1.5.062.756.025c.2.025.378.013.57.05a4.838,4.838,0,0,1,3.945,3.635,2.987,2.987,0,0,1,.1.57l.037.285.025.378.167,3c.192,3.994.353,7.995.421,12.008.316,16.027-.167,32.085-1.276,48.081Zm3.92-60.25h0l-.142-3.028-.025-.378-.05-.458a8.118,8.118,0,0,0-.155-.929,8.765,8.765,0,0,0-.651-1.753,7.944,7.944,0,0,0-5.834-4.255c-.316-.056-.626-.068-.929-.093l-.761-.025-1.511-.062-3.016-.117-6.026-.211q-6.029-.214-12.07-.31-24.143-.474-48.28-.025-12.076.232-24.127.725c-4.038.167-8.045.359-12.063.588l-6.026.365-1.5.1a7.43,7.43,0,0,0-1.778.31,7.57,7.57,0,0,0-3.127,1.8,7.845,7.845,0,0,0-1.957,3.01,8.053,8.053,0,0,0-.4,1.759l-.13,1.524c-.186,2.019-.328,4.025-.458,6.044-.279,4.019-.5,8.057-.619,12.088-.291,8.057-.322,16.132,0,24.2a221.8,221.8,0,0,0,2.211,24.109c.142.991.334,1.994.508,2.985l.254,1.5a7.119,7.119,0,0,0,.5,1.586,6.973,6.973,0,0,0,4.948,3.994,7.175,7.175,0,0,0,1.629.149l1.5-.037,3.016-.087,5.159-.142a49.821,49.821,0,0,1-1.647,10.639,37.726,37.726,0,0,1-4.428,10.237h0l-.025.049a.792.792,0,0,0,.941,1.158,42.838,42.838,0,0,0,15.043-8.806,56.187,56.187,0,0,0,11.011-13.531l.012-.012a.392.392,0,0,0,.037-.111q11.584-.065,23.168-.3,12.057-.242,24.115-.631c8.032-.316,16.07-.688,24.109-1.183l6.026-.409,3.016-.229,1.5-.112a11,11,0,0,0,1.7-.254,7.73,7.73,0,0,0,5.214-4.639,7.218,7.218,0,0,0,.446-1.765,7.379,7.379,0,0,0,.1-.8l.074-.755.26-3.01c.353-4.026.656-8.045.885-12.07.2-4.038.4-8.057.52-12.095q.4-12.085.217-24.2c-.05-4.038-.192-8.069-.378-12.107Z" transform="translate(-365.847 -390.534)" fill="#030504"/>
    </g>
    <g id="Group_15226" data-name="Group 15226" transform="translate(1262.899 3534.844)">
      <path id="Path_204284" data-name="Path 204284" d="M326.985,452.714h0a.319.319,0,0,0-.427.149,22.759,22.759,0,0,0-1.622,4.731,38.419,38.419,0,0,0-1.034,9.859,20.915,20.915,0,0,0,.687,4.973.325.325,0,0,0,.248.223.322.322,0,0,0,.378-.248h0c.334-1.635.582-3.233.8-4.843.235-1.6.409-3.2.557-4.812.167-1.61.3-3.22.4-4.843s.186-3.233.186-4.892a.333.333,0,0,0-.174-.3Zm22.691,25.477h0a.33.33,0,0,0-.279-.353c-2.682-.334-5.382-.5-8.076-.607-.663-.025-1.338-.062-2.013-.062-.322-.012-.7-.012-.985-.025a5.272,5.272,0,0,1-.824-.105,5.694,5.694,0,0,1-2.874-1.5,5.536,5.536,0,0,1-1.548-2.836c-.291-1.288-.526-2.607-.8-3.92-.526-2.62-1.065-5.258-1.74-7.877a.292.292,0,0,0-.285-.236.3.3,0,0,0-.322.3,55.574,55.574,0,0,0,.26,8.125c.112,1.362.3,2.688.5,4.062a7.741,7.741,0,0,0,2.2,4.156,7.584,7.584,0,0,0,4.217,2.068,9.751,9.751,0,0,0,1.189.081c.384-.012.687-.031,1.034-.043.675-.025,1.35-.087,2.013-.124,2.694-.174,5.382-.409,8.063-.824a.3.3,0,0,0,.266-.273Zm124.278-91.964h0a9.091,9.091,0,0,0-.7-2.137,9.38,9.38,0,0,0-2.874-3.493,9.624,9.624,0,0,0-4.217-1.734c-.811-.1-1.424-.111-2.124-.149-.675-.037-1.35-.074-2.025-.074-1.344-.025-2.706-.05-4.057-.012a63.581,63.581,0,0,0-8.106.681.3.3,0,0,0-.26.279.315.315,0,0,0,.279.347c2.681.328,5.357.539,8.026.749l3.995.316,2,.148c.65.05,1.387.1,1.907.174a7.916,7.916,0,0,1,5.586,3.759,8.451,8.451,0,0,1,1.158,3.418c.211,1.338.4,2.657.687,3.994a.331.331,0,0,0,.273.248.322.322,0,0,0,.353-.285c.149-1.35.2-2.694.248-4.044a10.219,10.219,0,0,0-.149-2.186Zm-31.807-8.348h0c1.548-.025,3.035-.167,4.508-.328s2.936-.347,4.4-.545c1.462-.217,2.923-.415,4.384-.65s2.948-.477,4.446-.848a.3.3,0,0,0,.223-.229.318.318,0,0,0-.223-.4,20.887,20.887,0,0,0-4.57-.576,29.722,29.722,0,0,0-4.583.223,27.686,27.686,0,0,0-4.5.954,19.108,19.108,0,0,0-4.261,1.784.331.331,0,0,0-.149.285.325.325,0,0,0,.322.328ZM465.5,457.569h0l-.248,3.1-.05.774c-.025.26-.055.539-.081.725a4.93,4.93,0,0,1-.285,1.2,5.3,5.3,0,0,1-3.536,3.233,21.412,21.412,0,0,1-2.867.353l-3.1.285-6.205.5c-8.28.638-16.572,1.133-24.864,1.573-16.256.935-32.543,1.536-48.824,2.167a1.07,1.07,0,0,0-.434-.508,1.094,1.094,0,0,0-1.5.421v.012a56.42,56.42,0,0,1-10.751,13.661,44.524,44.524,0,0,1-6.93,5.252,39.362,39.362,0,0,1-5.735,2.873,40.754,40.754,0,0,0,3.635-9,52.924,52.924,0,0,0,1.833-11.853v-.012a.867.867,0,0,0-.849-.892.886.886,0,0,0-.786.452l-5.481-.012H343.78a6.083,6.083,0,0,1-5.555-3.672,6,6,0,0,1-.4-1.331l-.223-1.536c-.149-1.028-.328-2.05-.452-3.072a225,225,0,0,1-1.722-24.765q-.279-12.42.347-24.858.288-6.2.8-12.392c.167-2.062.353-4.118.564-6.18l.149-1.536a4.908,4.908,0,0,1,.291-1.208,5.436,5.436,0,0,1,1.369-2.037,5.164,5.164,0,0,1,2.136-1.2,5.616,5.616,0,0,1,1.239-.2l1.548-.062,6.218-.3L362.532,387q12.438-.446,24.9-.638,24.914-.372,49.821.254l12.448.31,6.218.186,3.127.1,1.548.062.787.025c.2.031.384.012.582.056a5.015,5.015,0,0,1,3.672,2.656,5.136,5.136,0,0,1,.415,1.1,3.346,3.346,0,0,1,.1.588l.037.3.025.39.173,3.1c.2,4.131.365,8.261.44,12.4.322,16.566-.18,33.156-1.325,49.685Zm4.056-62.25h0l-.148-3.134-.025-.39-.049-.47a7.591,7.591,0,0,0-.836-2.775,8.2,8.2,0,0,0-6.032-4.391,7.446,7.446,0,0,0-.96-.105l-.787-.025-1.561-.062-3.121-.124-6.236-.211c-4.155-.149-8.311-.248-12.485-.328q-24.969-.483-49.933-.025-12.494.251-24.964.749c-4.168.18-8.317.378-12.472.613l-6.23.378-1.561.1a7.973,7.973,0,0,0-1.839.322,7.849,7.849,0,0,0-3.233,1.858,8.153,8.153,0,0,0-2.025,3.109,8.306,8.306,0,0,0-.409,1.827l-.136,1.573c-.192,2.081-.34,4.155-.477,6.242-.285,4.155-.514,8.323-.638,12.491-.3,8.329-.334,16.665,0,25.007a230.387,230.387,0,0,0,2.285,24.914c.149,1.022.353,2.062.526,3.084l.26,1.548a7.6,7.6,0,0,0,.514,1.635,7.2,7.2,0,0,0,5.121,4.131,7.653,7.653,0,0,0,1.685.148l1.548-.037,3.121-.087,5.332-.149a51.23,51.23,0,0,1-1.7,11,39.267,39.267,0,0,1-4.583,10.571h0l-.025.05a.789.789,0,0,0-.074.687.828.828,0,0,0,1.046.514,44.367,44.367,0,0,0,15.557-9.1,58.027,58.027,0,0,0,11.388-13.977l.013-.012a.392.392,0,0,0,.037-.111q11.992-.075,23.966-.316,12.466-.241,24.945-.65c8.3-.322,16.622-.712,24.939-1.22l6.23-.427,3.121-.235,1.548-.111a10.9,10.9,0,0,0,1.759-.26,8.006,8.006,0,0,0,5.394-4.8,7.323,7.323,0,0,0,.464-1.821,7.709,7.709,0,0,0,.1-.824L468,460.9l.279-3.109q.539-6.233.911-12.466c.21-4.174.409-8.329.532-12.5q.418-12.494.229-25.007c-.05-4.168-.2-8.336-.39-12.5Z" transform="translate(-323.886 -374.293)" fill="#030504"/>
    </g>
    <g id="Group_15228" data-name="Group 15228" transform="translate(858.546 3567.439)">
      <path id="Path_204285" data-name="Path 204285" d="M315.291,508.289h0a22.823,22.823,0,0,0,9.116-3.815.3.3,0,0,0,.105-.347.283.283,0,0,0-.378-.155h-.019a32.829,32.829,0,0,1-9.1,2.378,27.751,27.751,0,0,1-9.2-.489,22.99,22.99,0,0,1-8.317-3.815,30.11,30.11,0,0,1-6.6-6.695.294.294,0,0,0-.365-.086.282.282,0,0,0-.136.384,22.3,22.3,0,0,0,5.92,7.89,21.432,21.432,0,0,0,8.961,4.564,25.857,25.857,0,0,0,5.016.619,26.434,26.434,0,0,0,5-.433Zm129.437-47.623h0a25.263,25.263,0,0,1-7.289,11.153,27.116,27.116,0,0,1-11.952,6.069,24.764,24.764,0,0,0-.657-4.527.569.569,0,0,0-.526-.434.578.578,0,0,0-.625.539h0a37.138,37.138,0,0,1-1.232,7.543,23.142,23.142,0,0,1-2.985,6.645,24.03,24.03,0,0,1-10.943,8.967,30.528,30.528,0,0,1-7.035,1.938,34.027,34.027,0,0,1-7.413.279,35.763,35.763,0,0,1-14.485-4.3.585.585,0,0,0-.712.1.6.6,0,0,0,.037.836,27.977,27.977,0,0,0,9.809,5.759,36.878,36.878,0,0,0,1.406,8.2,42.824,42.824,0,0,0,3.109,7.927,32.818,32.818,0,0,0,4.917,7.06,25.983,25.983,0,0,0,2.954,2.756,34.762,34.762,0,0,1-8.825-.972,31.106,31.106,0,0,1-6.18-2.322,30.772,30.772,0,0,1-5.487-3.66,36.81,36.81,0,0,1-8.373-10.317,46.939,46.939,0,0,1-4.88-12.435v-.019A1.73,1.73,0,0,0,367.2,497a1.577,1.577,0,0,0-2.118-.57l-.155.087a44.562,44.562,0,0,1-8.633,3.623,29.139,29.139,0,0,1-8.905,1.56,18.783,18.783,0,0,1-4.31-.724,26.066,26.066,0,0,1-4.236-1.616,22.742,22.742,0,0,1-7.159-5.5v-.012a1.83,1.83,0,0,0-2.013-.471l-.019.019a33.39,33.39,0,0,1-10.887,2.409,22.4,22.4,0,0,1-10.627-1.945,23.669,23.669,0,0,1-8.391-6.967,25.82,25.82,0,0,1-4.063-8.205,19.463,19.463,0,0,0,2.1.3.76.76,0,0,0,.8-.52.772.772,0,0,0-.483-.991,27.19,27.19,0,0,1-3.09-1.282,1.566,1.566,0,0,0-1.375-.712,23.984,23.984,0,0,1-6.688-5.518,25.257,25.257,0,0,1-4.13-24.833,25.829,25.829,0,0,1,7.921-10.819.779.779,0,0,0-.8-1.319c-.489.2-.972.446-1.462.706a25.644,25.644,0,0,1-2.081-16.089,28.626,28.626,0,0,1,8.348-14.6,33.954,33.954,0,0,1,14.888-8.4,29.663,29.663,0,0,1,16.622.452,22.969,22.969,0,0,0-1.232,3.171.586.586,0,0,0,.272.681.567.567,0,0,0,.787-.229h.012a32.069,32.069,0,0,1,13.445-12.572,51.875,51.875,0,0,1,17.7-5.462,36.541,36.541,0,0,1,9.116.105,39.34,39.34,0,0,1,8.942,2.2A43.557,43.557,0,0,1,391,393.1a.605.605,0,0,0,.712.087.579.579,0,0,0,.186-.8,28.843,28.843,0,0,0-2.168-3.053l.019-.019c3.14-3.6,8.125-5.029,12.918-5.307a26.767,26.767,0,0,1,13.983,3.072,24.982,24.982,0,0,1,5.815,4.3,31.914,31.914,0,0,1,4.657,5.722,25.57,25.57,0,0,1,4.3,13.965v.155a1.266,1.266,0,0,0,1.406,1.109,6.908,6.908,0,0,1,5.592,2.4,13.818,13.818,0,0,1,3.3,5.809,14.65,14.65,0,0,1,.366,6.732,15.859,15.859,0,0,1-2.706,6.31l-.018.019-.037.068a1.238,1.238,0,0,0,.068,1.493,25.915,25.915,0,0,1,3.734,5.722,27.245,27.245,0,0,1,1.6,19.786ZM448.48,446.6h0a28.948,28.948,0,0,0-2.781-7.06,25.62,25.62,0,0,0-3.852-5.184,14.889,14.889,0,0,0,3.419-6.416,15.9,15.9,0,0,0-.223-8.379,15.314,15.314,0,0,0-4.428-7.165,10.652,10.652,0,0,0-3.79-2.235,7.937,7.937,0,0,0-2.917-.347,23.235,23.235,0,0,0-.415-6.868,29.3,29.3,0,0,0-2.973-7.84,31.168,31.168,0,0,0-4.948-6.781,26.605,26.605,0,0,0-6.738-5.252,27.536,27.536,0,0,0-8.007-2.966,29.053,29.053,0,0,0-4.255-.539,27.434,27.434,0,0,0-4.273.142,23.748,23.748,0,0,0-8.212,2.409,14.536,14.536,0,0,0-5.958,5.376,36.029,36.029,0,0,0-11.327-8.15,37.316,37.316,0,0,0-20.108-3.282,47.2,47.2,0,0,0-19.068,6.75,33.469,33.469,0,0,0-7.729,6.608,24.973,24.973,0,0,0-2.105,2.88,29.4,29.4,0,0,0-9.357-2.446,32.4,32.4,0,0,0-9.779.638,35.874,35.874,0,0,0-17.123,9.2,31.036,31.036,0,0,0-9.382,17.117,27.26,27.26,0,0,0,.192,9.921,28.53,28.53,0,0,0,3.474,8.651,21.95,21.95,0,0,0-6.738,8.137,25.172,25.172,0,0,0-2.031,15.327,25.483,25.483,0,0,0,7.084,13.736,22.5,22.5,0,0,0,8.094,5.152,25.541,25.541,0,0,0,4.217,11.482,25.205,25.205,0,0,0,9.729,8.651,24.822,24.822,0,0,0,12.869,2.5,24.179,24.179,0,0,0,10.943-3.505,22.029,22.029,0,0,0,6.893,6.156,24.955,24.955,0,0,0,4.9,2.223,21.136,21.136,0,0,0,5.45,1.053,27.417,27.417,0,0,0,10.528-1.994,30.418,30.418,0,0,0,7.227-3.864,51,51,0,0,0,4.564,10.992,39.944,39.944,0,0,0,9.085,11.153,34.135,34.135,0,0,0,6.063,4.044,35.294,35.294,0,0,0,6.824,2.582,40.288,40.288,0,0,0,14.4.743,1.589,1.589,0,0,0,1.177-.8,1.526,1.526,0,0,0-.644-2.081l-.012-.012a26.032,26.032,0,0,1-10.46-11.122,38.143,38.143,0,0,1-2.88-7.332,34.344,34.344,0,0,1-1.214-6.453c.57.136,1.146.26,1.734.365a31.669,31.669,0,0,0,8.391.31,29.042,29.042,0,0,0,8.249-1.994,25.64,25.64,0,0,0,7.345-4.4,23.57,23.57,0,0,0,5.382-6.75,22.715,22.715,0,0,0,2.5-9.5,1.579,1.579,0,0,0,.242.019,27.245,27.245,0,0,0,22.3-18.492,27.9,27.9,0,0,0,.452-15.1ZM280.889,396.948h0a.305.305,0,0,0,.4-.118l2.4-4.583c.8-1.493,1.616-2.966,2.52-4.385.867-1.443,1.821-2.83,2.793-4.217.991-1.387,2.031-2.719,3.09-4.124a.279.279,0,0,0,.019-.328.284.284,0,0,0-.4-.105,19.325,19.325,0,0,0-4.186,3.326,26.89,26.89,0,0,0-3.282,4.236,23.939,23.939,0,0,0-2.347,4.8,20.165,20.165,0,0,0-1.164,5.221.313.313,0,0,0,.161.279ZM329,507.422h0a53.108,53.108,0,0,1-4.812,3.034,38.939,38.939,0,0,1-5.053,2.36,35.382,35.382,0,0,1-10.961,2.254.271.271,0,0,0-.26.192.313.313,0,0,0,.192.384,16.092,16.092,0,0,0,5.958.607,20.929,20.929,0,0,0,5.889-1.282,21.868,21.868,0,0,0,5.295-2.861,17.219,17.219,0,0,0,4.168-4.285.289.289,0,0,0,0-.328.3.3,0,0,0-.415-.074ZM428.23,378.915h0a27.2,27.2,0,0,0-4.477-2.273,22.712,22.712,0,0,0-9.76-1.579.272.272,0,0,0-.26.241.266.266,0,0,0,.242.328h0a33.2,33.2,0,0,1,8.992,2.812,27.5,27.5,0,0,1,7.543,5.27,23.024,23.024,0,0,1,5.035,7.648,30.059,30.059,0,0,1,2.05,9.159.29.29,0,0,0,.242.26.268.268,0,0,0,.328-.242,22.063,22.063,0,0,0-.83-9.834,21.292,21.292,0,0,0-5.177-8.6,26.164,26.164,0,0,0-3.926-3.19Zm-138.4,13.061h0a.327.327,0,0,0,.415,0,48.757,48.757,0,0,1,4.552-4.063,36.686,36.686,0,0,1,4.967-3.257,30.889,30.889,0,0,1,5.456-2.359,32.684,32.684,0,0,1,5.9-1.319.322.322,0,0,0,.26-.223.3.3,0,0,0-.242-.347,16.206,16.206,0,0,0-6.391.031,22.1,22.1,0,0,0-11.252,6.02,18.062,18.062,0,0,0-3.722,5.183.3.3,0,0,0,.056.334ZM411.664,370.14h0a51.538,51.538,0,0,1,5.7-.037,38.936,38.936,0,0,1,5.518.675,34.916,34.916,0,0,1,10.509,3.889.3.3,0,0,0,.365-.452,16.536,16.536,0,0,0-4.725-3.679,21.385,21.385,0,0,0-5.7-2.012,23.24,23.24,0,0,0-6.007-.378,17.688,17.688,0,0,0-5.8,1.418.329.329,0,0,0-.173.3.325.325,0,0,0,.316.279Z" transform="translate(-276.648 -368.091)" fill="#030504"/>
    </g>
    <text id="Awesome_design_brilliant_content_" data-name="Awesome design, brilliant content!" transform="translate(864.938 3622.797)" font-size="18" font-family="Inter-Medium, Inter" font-weight="500"><tspan x="5.306" y="17">Awesome design, </tspan><tspan x="10.784" y="37">brilliant content!</tspan></text>
    <text id="Human_touch" data-name="Human touch" transform="translate(1285.62 3573.837)" font-size="18" font-family="Inter-Medium, Inter" font-weight="500"><tspan x="22.891" y="17">Human </tspan><tspan x="28.778" y="37">touch</tspan></text>
    <text id="Massive_reflection" data-name="Massive reflection" transform="translate(1524.276 3634.527)" font-size="18" font-family="Inter-Medium, Inter" font-weight="500"><tspan x="21.898" y="17">Massive </tspan><tspan x="16.292" y="37">reflection</tspan></text>
    <text id="Not_seen_anything_like_this" data-name="Not seen 
anything like this" transform="translate(1418.612 3916.629)" font-size="18" font-family="Inter-Medium, Inter" font-weight="500"><tspan x="35.475" y="17">Not seen </tspan><tspan x="1.395" y="37">anything like this</tspan></text>
    <text id="Involved_spent_hours" data-name="Involved &amp; spent hours" transform="translate(1431.994 4027.403)" font-size="18" font-family="Inter-Medium, Inter" font-weight="500"><tspan x="16.442" y="17">Involved &amp; </tspan><tspan x="9.497" y="37">spent hours</tspan></text>
    <text id="Insightful_thought-provoking_questions" data-name="Insightful thought-provoking 
questions" transform="translate(845.469 3893.844)" font-size="18" font-family="Inter-Medium, Inter" font-weight="500"><tspan x="52.774" y="17">Insightful </tspan><tspan x="12.309" y="37">thought-provoking </tspan><tspan x="50.649" y="57">questions</tspan></text>
  </g>
</svg>
