<svg xmlns="http://www.w3.org/2000/svg" width="593.676" height="524.957" viewBox="0 0 593.676 524.957">
  <g id="Group_15173" data-name="Group 15173" transform="translate(-232.474 -191)">
    <path id="Path_204119" data-name="Path 204119" d="M394.2,342.619c2.678-25.347,13.524-52.592,24.639-75.353,25.651-52.526,77.052-82.575,135.8-75.147,43.072,5.446,83.249,29.8,108.7,64.978,11.348,15.687,19.594,33.261,31.373,48.769,18.627,24.525,43.018,42.781,63.083,65.871,22.751,26.182,32.495,57.319,27.85,91.348-2.591,18.985-11.136,37.7-26.116,49.646-16.955,13.524-40.1,16.94-61.69,14.893-25.691-2.436-50.025-11.724-74.515-20.285-1.18,8.862-3.928,17.616-6.848,25.956h-48.64v75.858c-12.077,5.553-25.387,8-38.6,8.677-15.163.781-30.7.038-43.984-8.017-24.969-15.135-39.585-39.553-52.836-64.687C400.193,484.008,386.775,412.9,394.2,342.619Z" transform="translate(-107.513 0)" fill="#fcf7f5"/>
    <path id="Path_204120" data-name="Path 204120" d="M640.974,1391.053s-8.86,4.57-20.664,37.4-15.772,76.843-15.772,76.843h71.431l25.112-120.856s-43.872-20.882-43.872-20.723S640.974,1391.053,640.974,1391.053Z" transform="translate(-250.43 -789.338)" fill="#c7795a"/>
    <path id="Path_204121" data-name="Path 204121" d="M715.994,1371.484v9.5h69.988s-9.3-32.228-9.882-32.228S715.994,1371.484,715.994,1371.484Z" transform="translate(-325.45 -779.269)" fill="#361e14"/>
    <path id="Path_204122" data-name="Path 204122" d="M368.1,1257.929s-19.842-28.861-28.5-60.969-8.3-42.209-7.937-43.292,37.52-9.531,37.52-9.531,20.924,45.608,20.924,47.772S368.1,1257.929,368.1,1257.929Z" transform="translate(-66.667 -641.543)" fill="#361e14"/>
    <path id="Path_204123" data-name="Path 204123" d="M248.331,1136.151a30.556,30.556,0,0,0,25.9,1.371,116.731,116.731,0,0,0,13.637-6.306,291.149,291.149,0,0,0,29.885-19.366c7.865-5.671,15.643-11.53,23.147-17.678,0,0-1-51.921-1.6-55.009s-37.764-8.182-37.764-8.182c-8.557,6.595-22.67,17.215-27.173,20.621l-1.429,1.068s-10.289,7.98-14.171,11.112c-1.818,1.472-3.637,3.045-5.4,4.646-7.562,6.941-14.156,14.734-16.335,19.005C228.792,1103.609,231.245,1126.944,248.331,1136.151Z" transform="translate(0 -565.379)" fill="#ffa991"/>
    <path id="Path_204124" data-name="Path 204124" d="M296.384,1110.885l22.714-11.111s-.765-2.713-1.717-5.714c-.909.678-1.429,1.068-1.429,1.068s-10.289,7.98-14.171,11.112C299.963,1107.71,298.144,1109.283,296.384,1110.885Z" transform="translate(-43.017 -607.836)" fill="#361e14"/>
    <path id="Path_204125" data-name="Path 204125" d="M1313.05,1090.146c-1.684,49.545-17.2,95.121-17.2,95.121s-7.531-12.947-16.925-28.951v-30.209h-17.835c-9.639-16.2-17.7-29.443-18.392-29.655-1.8-.548-2.525-43.065-2.525-43.065S1314.734,1040.6,1313.05,1090.146Z" transform="translate(-678.27 -579.463)" fill="#361e14"/>
    <path id="Path_204126" data-name="Path 204126" d="M1381.552,1045.65l58.684,35.115s23.33,17.076,22.608,22.367c-.386,2.833-5.529,15.8-12.55,27.423a54.23,54.23,0,0,1-10.807,12.992c-5.561,4.736-11.428,6.282-18.423,4.753a88.882,88.882,0,0,1-14.279-4.688,289.659,289.659,0,0,1-31.925-15.754c-8.479-4.721-16.879-9.632-25.055-14.865,0,0-5.051-51.679-4.81-54.82S1381.552,1045.65,1381.552,1045.65Z" transform="translate(-748.816 -575.252)" fill="#ffa991"/>
    <path id="Path_204127" data-name="Path 204127" d="M1150.391,1044.134h-21.3c-6.1-4.161-9.937-7-9.937-7.581,0-2.886,14.058-52.191,14.058-52.191s23.174-65.778,33.45-60.959,62.885,39.794,62.885,39.794-18.759,24.773-21.646,54.836,6.494,80.57,6.494,80.57-7.8-4.843-18.909-11.815v-43.016h-45.1Z" transform="translate(-596.811 -492.8)" fill="#c7795a"/>
    <path id="Path_204128" data-name="Path 204128" d="M1564.261,803.777c-.24.722-61.811,111.6-61.811,111.6l62.773,33.807,50.987-125.7s-12.026-21.142-13.709-21.382S1564.261,803.777,1564.261,803.777Z" transform="translate(-854.802 -411.304)" fill="#ffa991"/>
    <g id="Group_15145" data-name="Group 15145" transform="translate(649.558 486.573)">
      <path id="Path_204129" data-name="Path 204129" d="M1509.016,1109.111a.721.721,0,0,0,.631-.371l6.959-12.537a.721.721,0,1,0-1.261-.7l-6.959,12.537a.721.721,0,0,0,.28.981A.708.708,0,0,0,1509.016,1109.111Z" transform="translate(-1508.294 -1095.13)" fill="#361e14"/>
    </g>
    <g id="Group_15150" data-name="Group 15150" transform="translate(708.297 324.897)">
      <path id="Path_204130" data-name="Path 204130" d="M1689.131,676.8a35.006,35.006,0,0,1,1.082-21.405c4.313-11.744,11.722-17.02,23.747-26.359,4.845-3.763,9.512-7.8,14.727-11.059,3.462-2.162,13.552-7.849,16.529-1.954,2.016,3.991-4.025,9.461-6.48,11.931-3.968,3.992-11.184,11.388-11.184,11.388s18.212,40.225,17.945,45.276-4.416,11.882-4.416,11.882-33.912,1.911-34.814,2.139S1689.131,676.8,1689.131,676.8Z" transform="translate(-1687.97 -609.228)" fill="#ffa991"/>
      <path id="Path_204131" data-name="Path 204131" d="M1787.544,687.853s32.289-11.521,43.833-19.819,19.859-16.443,18.128-22.638c-1.714-6.133-9.47-2.976-9.47-2.976s8.929-8.839,10.913-13.168,1.894-8.658-1.172-10.823c-2.7-1.909-7.393,0-7.4,0,.351-.144.8-1.271.969-1.576a22.562,22.562,0,0,0,1.819-4.052c1.062-3.258,1.175-7.643-2.736-8.962a10.8,10.8,0,0,0-9.612,1.783,70.475,70.475,0,0,0-6.313,6.133c1.085-1.2,1.466-4.107,1.518-5.62.159-4.686-4.906-6.748-8.721-4.862-3.653,1.8-6.416,5.732-9.2,8.58q-2.122,2.173-4.341,4.247c-10.462,9.741-35.9,17.317-35.9,17.317s-13.89,37.158-12.807,41.488S1787.544,687.853,1787.544,687.853Z" transform="translate(-1734.433 -600.578)" fill="#ffa991"/>
      <g id="Group_15146" data-name="Group 15146" transform="translate(77.884 41.721)">
        <path id="Path_204132" data-name="Path 204132" d="M1926.929,745.4a.715.715,0,0,0,.243-.042,80.035,80.035,0,0,0,13.3-6.5c6.148-3.8,13.164-9.312,13.234-9.367a.721.721,0,0,0-.892-1.134c-.07.055-7.023,5.516-13.1,9.273a78.448,78.448,0,0,1-13.032,6.368.721.721,0,0,0,.243,1.4Z" transform="translate(-1926.208 -728.199)" fill="#361e14"/>
      </g>
      <g id="Group_15147" data-name="Group 15147" transform="translate(24.972 29.816)">
        <path id="Path_204133" data-name="Path 204133" d="M1765.078,733.15a.72.72,0,0,0,.6-.318,106.7,106.7,0,0,0,9.091-18.174c3.747-9.385,4.241-21.612,4.259-22.128a.721.721,0,0,0-1.442-.054c0,.124-.505,12.5-4.158,21.646a105.332,105.332,0,0,1-8.947,17.9.722.722,0,0,0,.6,1.125Z" transform="translate(-1764.357 -691.782)" fill="#361e14"/>
      </g>
      <g id="Group_15148" data-name="Group 15148" transform="translate(71.029 18.007)">
        <path id="Path_204134" data-name="Path 204134" d="M1905.962,682.741a.714.714,0,0,0,.273-.053,89.309,89.309,0,0,0,16.992-9.708c8.237-6.088,18.721-15.974,18.826-16.074a.721.721,0,0,0-.991-1.048c-.1.1-10.527,9.926-18.693,15.963a87.657,87.657,0,0,1-16.68,9.532.722.722,0,0,0,.273,1.389Z" transform="translate(-1905.24 -655.66)" fill="#361e14"/>
      </g>
      <g id="Group_15149" data-name="Group 15149" transform="translate(65.377 11.176)">
        <path id="Path_204135" data-name="Path 204135" d="M1888.674,656.229a.709.709,0,0,0,.278-.056c11.646-4.875,25.347-19.574,25.925-20.2a.722.722,0,1,0-1.059-.981c-.139.15-14.069,15.094-25.423,19.847a.722.722,0,0,0,.278,1.387Z" transform="translate(-1887.953 -634.764)" fill="#361e14"/>
      </g>
    </g>
    <path id="Path_204136" data-name="Path 204136" d="M797.088,508.839s-6.781-15.633-36.364-12.025c-31.953,3.9-37.4,26.664-38.962,38.766s-4.329,15.582-9.981,21.057-6.373,13.893-5.893,23.153-1.563,15.392-7.816,20.2-11.544,9.981-13.589,18.4.361,13.709,0,14.07,55.558-.241,58.083-.962,18.639-5.411,19.481-7.1S797.088,508.839,797.088,508.839Z" transform="translate(-303.679 -205.475)" fill="#663020"/>
    <g id="Group_15151" data-name="Group 15151" transform="translate(398.962 377.682)">
      <path id="Path_204137" data-name="Path 204137" d="M742.464,801.365a.721.721,0,0,0,.606-.328,59.505,59.505,0,0,1,7.16-8.475,77.927,77.927,0,0,0,5.885-6.635c7.046-9.273,5.185-22.7,5.1-23.268a.721.721,0,0,0-1.428.208c.019.133,1.851,13.4-4.822,22.188a77.247,77.247,0,0,1-5.779,6.509,60.651,60.651,0,0,0-7.329,8.686.722.722,0,0,0,.6,1.115Z" transform="translate(-741.744 -762.042)" fill="#361e14"/>
    </g>
    <g id="Group_15152" data-name="Group 15152" transform="translate(386.215 349.902)">
      <path id="Path_204138" data-name="Path 204138" d="M703.475,753.068a.722.722,0,0,0,.72-.7,28.478,28.478,0,0,1,5.618-14.91,30.831,30.831,0,0,1,6.256-6.081,32.5,32.5,0,0,0,7.47-7.651c3.377-4.643,3.232-10.9,3.078-17.523-.115-4.975-.235-10.12,1.233-14.6,3.305-10.091,8.253-13.165,8.3-13.2a.721.721,0,1,0-.745-1.236c-.221.133-5.458,3.386-8.929,13.982-1.546,4.719-1.423,9.99-1.305,15.087.149,6.373.289,12.391-2.8,16.641a30.9,30.9,0,0,1-7.185,7.357,32.431,32.431,0,0,0-6.506,6.329,29.42,29.42,0,0,0-5.927,15.755.721.721,0,0,0,.7.745Z" transform="translate(-702.753 -677.066)" fill="#361e14"/>
    </g>
    <path id="Path_204139" data-name="Path 204139" d="M803.78,727.948s21.087,67.37,25.661,70.011,13.709-2.41,18.038-5.772,33.389-63.607,33.389-63.607l-10.545-1.085-1.2-8.211-2.655-18.255-.375-.418-36.178-40.463-9.38,65.9Z" transform="translate(-384.538 -315.776)" fill="#ffa991"/>
    <path id="Path_204140" data-name="Path 204140" d="M862.83,954.876s-26.913-9.62-50.521-12.036c-15.982-1.635-17.066.491-17.307.972s-2.405,10.1,3.608,14.671S822,970.028,835.917,972.193,862.83,954.876,862.83,954.876Z" transform="translate(-378.243 -505.644)" fill="#361e14"/>
    <path id="Path_204141" data-name="Path 204141" d="M921.341,748.844s4.214,13.824,20.26,23.017a40.962,40.962,0,0,0,6.652,3.131L945.6,756.737l-.375-.418-20.578-13.406Z" transform="translate(-463.666 -371.485)" fill="#361e14"/>
    <path id="Path_204142" data-name="Path 204142" d="M868.482,562.777c.49,16.6,9.567,33.984,15.571,41.17s23.55,16.162,36.018,12.223c22.4-7.114,15.729-37.822,11.386-55.283l-.086-.347c-.1-.433-.217-.851-.318-1.27-.159-.664-.332-1.328-.52-1.977l-.13-.476a174.126,174.126,0,0,0-6.191-18.457c-5.18-13.247-38.573-6.176-38.573-6.176S867.977,546.2,868.482,562.777Z" transform="translate(-428.081 -228.377)" fill="#ffa991"/>
    <path id="Path_204143" data-name="Path 204143" d="M918.613,540.805l-8.842-10.6a13.974,13.974,0,0,1-6.794,5.772c-4.991,2.164-8.839.241-12.763,3.378-4.537,3.627-4.1,6.633-8.432,10.482s-8.237,2.7-12.446,5.6-2.976,8.683-5.141,11.81-8.418,3.058-8.418,3.058,1.563-22.058,2.044-23.02,1.475-5.893,5.488-10.342,12.911-10.582,16.4-12.145,13.469-2.887,16.836-2.646,14.4,2.405,16.4,4.088S918.613,540.805,918.613,540.805Z" transform="translate(-419.536 -222.871)" fill="#663020"/>
    <ellipse id="Ellipse_403" data-name="Ellipse 403" cx="8.728" cy="12.535" rx="8.728" ry="12.535" transform="translate(430.608 343.415) rotate(-24.673)" fill="#ffa991"/>
    <path id="Path_204144" data-name="Path 204144" d="M1040.847,637.489c.591,1.816,1.914,3.013,2.954,2.674s1.406-2.085.815-3.9-1.913-3.013-2.954-2.674S1040.256,635.673,1040.847,637.489Z" transform="translate(-543.914 -297.861)" fill="#361e14"/>
    <path id="Path_204145" data-name="Path 204145" d="M979.814,641.337c.648,1.991,2.1,3.3,3.239,2.933s1.541-2.287.893-4.278-2.1-3.3-3.239-2.932S979.166,639.346,979.814,641.337Z" transform="translate(-502.815 -300.194)" fill="#361e14"/>
    <g id="Group_15153" data-name="Group 15153" transform="translate(491.021 341.897)">
      <path id="Path_204146" data-name="Path 204146" d="M1026.592,663.643a.721.721,0,0,0,.626-.362c2.447-4.249,2.189-5.023,2.1-5.278-.259-.773-3.088-3.6-4.752-5.219a.722.722,0,0,0-1.006,1.034,47.252,47.252,0,0,1,4.4,4.673,26,26,0,0,1-2,4.07.722.722,0,0,0,.624,1.082Z" transform="translate(-1023.345 -652.579)" fill="#361e14"/>
    </g>
    <path id="Path_204147" data-name="Path 204147" d="M1016.48,698.771h-16.324s1.147,6.34,9.1,6.34C1015.533,705.111,1016.48,698.771,1016.48,698.771Z" transform="translate(-516.716 -341.773)" fill="#f27255"/>
    <path id="Path_204148" data-name="Path 204148" d="M959.288,616.395a1.616,1.616,0,0,0-.054,1.591,1.683,1.683,0,0,0,1.522.687,6.134,6.134,0,0,0,1.691-.433,17.176,17.176,0,0,1,4.047-.856,9.309,9.309,0,0,0,2.732-.442c1.655-.675,1.957-2.127.586-3.225a5.505,5.505,0,0,0-3.984-1.046,10.1,10.1,0,0,0-4.982,2.027A5.713,5.713,0,0,0,959.288,616.395Z" transform="translate(-489.047 -283.799)" fill="#663020"/>
    <path id="Path_204149" data-name="Path 204149" d="M1032.418,613.839a9.146,9.146,0,0,0,2.728-.115,16,16,0,0,1,4.07.029,7.6,7.6,0,0,0,1.4.1l-.086-.347c-.1-.433-.217-.851-.318-1.27-.159-.664-.332-1.328-.52-1.977-.043-.159-.086-.317-.13-.476a9.958,9.958,0,0,0-4.719-.751,5.451,5.451,0,0,0-3.637,1.8C1030.11,612.179,1030.687,613.521,1032.418,613.839Z" transform="translate(-537.239 -281.344)" fill="#663020"/>
    <path id="Path_204150" data-name="Path 204150" d="M860.79,741.492h7.735a3.018,3.018,0,0,0,2.944-3.637l-3.059-14.618a3.026,3.026,0,0,0-2.958-2.4h-1.588a3.014,3.014,0,0,0-2.958,2.4l-3.059,14.618A3.01,3.01,0,0,0,860.79,741.492Zm.635-6,1.313-6.234a1.961,1.961,0,0,1,3.839,0l1.313,6.234a1.975,1.975,0,0,1-1.934,2.367h-2.612A1.966,1.966,0,0,1,861.425,735.489Z" transform="translate(-420.883 -356.629)" fill="#fff"/>
    <path id="Path_204151" data-name="Path 204151" d="M868.471,702.694a3.419,3.419,0,1,0,3.382-3.923A3.683,3.683,0,0,0,868.471,702.694Z" transform="translate(-428.08 -341.773)" fill="#361e14"/>
    <path id="Path_204152" data-name="Path 204152" d="M640.011,875.743c12.266-4.81,45.534-8.2,45.534-8.2s36.239,62.8,39.666,60.631,37.422-60,37.422-60,26.606,2.884,34.1,4.442c16.054,3.337,41.938,11.695,43.382,17.226.951,3.646-11.573,71-20.224,116.5h-.008v.045l-.06.316H741.776V1020.3a1.487,1.487,0,0,0-.453.983,1.766,1.766,0,0,0,.453,1.311v1.462l-1.377.086-12.573,24.171c-34.7.169-67.668.1-70.98-.727-7.215-1.8-7.456-6.975-9.26-16.355-1.523-7.922-15.272-83.577-18.158-110.273S627.745,880.553,640.011,875.743Z" transform="translate(-266.303 -455.371)" fill="#c7795a"/>
    <g id="Group_15154" data-name="Group 15154" transform="translate(401.657 492.552)">
      <path id="Path_204153" data-name="Path 204153" d="M750.71,1217.532a.721.721,0,0,0,.518-.219c.154-.158,15.5-16.09,24.576-36.04,18.083-39.734,23.568-66.722,23.621-66.989a.721.721,0,1,0-1.415-.282c-.053.266-5.511,27.106-23.519,66.673-8.973,19.716-24.147,35.475-24.3,35.633a.722.722,0,0,0,.518,1.224Z" transform="translate(-749.988 -1113.42)" fill="#361e14"/>
    </g>
    <g id="Group_15155" data-name="Group 15155" transform="translate(545.863 439.529)">
      <path id="Path_204154" data-name="Path 204154" d="M1191.823,1063.662a.721.721,0,0,0,.634-.376c17.194-31.521,22.571-110.5,22.623-111.291a.721.721,0,0,0-.673-.767.729.729,0,0,0-.767.673c-.052.79-5.408,79.451-22.45,110.7a.721.721,0,0,0,.633,1.067Z" transform="translate(-1191.102 -951.227)" fill="#361e14"/>
    </g>
    <g id="Group_15160" data-name="Group 15160" transform="translate(406.778 425.991)">
      <g id="Group_15157" data-name="Group 15157" transform="translate(103.705)">
        <g id="Group_15156" data-name="Group 15156" transform="translate(8.105 10.242)">
          <path id="Path_204155" data-name="Path 204155" d="M1128.74,1059.007h1.443V1018.7a152.144,152.144,0,0,0-19.68-74.763l-1.579-2.79-1.256.71,1.579,2.79a150.7,150.7,0,0,1,19.493,74.052Z" transform="translate(-1107.669 -941.146)" fill="#fff"/>
        </g>
        <path id="Path_204156" data-name="Path 204156" d="M1084.713,920.825c3.057,5.083,10.651,6.126,10.651,6.126s2.639-7.2-.417-12.281-6.551-5.707-9.377-4.008S1081.657,915.742,1084.713,920.825Z" transform="translate(-1082.877 -909.815)" fill="#fff"/>
      </g>
      <g id="Group_15158" data-name="Group 15158" transform="translate(62.498 124.53)">
        <path id="Path_204157" data-name="Path 204157" d="M962.879,1455.508l-6.047-87.724a.759.759,0,0,1,0-.106l5.166-65.2.113-1.372.014-9.647a.72.72,0,0,1,.721-.718h123.411a.72.72,0,0,1,.721.719v164a.72.72,0,0,1-.721.718H963.6A.721.721,0,0,1,962.879,1455.508Zm122.658-163.329H963.567l-.015,8.986-5.277,66.574,6,87h121.265Z" transform="translate(-956.831 -1290.742)" fill="#361e14"/>
      </g>
      <path id="Path_204158" data-name="Path 204158" d="M765.654,1457.882H834.92V1293.959a.683.683,0,0,0-1.17-.479l-68.1,69.161Z" transform="translate(-765.654 -1167.916)" fill="#361e14"/>
      <g id="Group_15159" data-name="Group 15159" transform="translate(67.318 134.116)">
        <rect id="Rectangle_4541" data-name="Rectangle 4541" width="124.608" height="1.443" fill="#361e14"/>
      </g>
    </g>
    <path id="Path_204159" data-name="Path 204159" d="M457.013,892.626S431.279,902.487,410.354,918s-54.114,41.55-54.114,41.55,9.741,12.2,20.564,42.508,7.937,86.583,7.937,86.583l89.108-56.279Z" transform="translate(-83.305 -472.254)" fill="#c7795a"/>
    <g id="Group_15161" data-name="Group 15161" transform="translate(351.1 442.406)">
      <path id="Path_204160" data-name="Path 204160" d="M624.21,1082.3a.722.722,0,0,0,.709-.589c.053-.285,5.209-28.963-3.55-66.472-5.424-23.23-24.5-54.552-24.693-54.865a.722.722,0,0,0-1.23.754c.191.311,19.147,31.436,24.518,54.439,8.691,37.219,3.589,65.6,3.536,65.88a.723.723,0,0,0,.578.842A.827.827,0,0,0,624.21,1082.3Z" transform="translate(-595.339 -960.026)" fill="#361e14"/>
    </g>
    <path id="Path_204161" data-name="Path 204161" d="M365.863,1012.9l19.178,69.613,80.624-45.3,1.27-.722,9.712-5.455,1.256-.693,17.576-9.885s8.153-32.916,6.941-34.114-31.761-21.357-31.761-21.357c-.116.072-3.709,1.732-9.5,4.4-.476.2-.952.433-1.457.664-2.915,1.328-6.306,2.886-10.029,4.589-.491.231-1,.462-1.5.678C417.38,989.42,365.863,1012.9,365.863,1012.9Z" transform="translate(-89.782 -520.961)" fill="#ffa991"/>
    <path id="Path_204162" data-name="Path 204162" d="M682.4,957.2S696.031,951.532,722,954.1c23.114,2.285,59.709,14.749,67.285,18s14.07,6.915,15.333,11.484-3.788,8-3.788,8,8.26,3.726,6.313,9.921c-2.646,8.418-12.219,6.133-12.219,6.133s3.55,7.409-3.593,11.973c-5.353,3.42-21.527-1.511-28.382-4.577a147.11,147.11,0,0,0-17.661-5.952s9.724,12.446,11.889,15.873c2.011,3.186,6.138,8.7.7,11.009a8.072,8.072,0,0,1-4.23.417c-7.387-1-10.791-8.168-15.238-13.23-3.573-4.068-8.832-9.019-8.832-9.019s-20.2,4.946-29.763,1.841-18.76-17.174-19.3-21.323S682.4,957.2,682.4,957.2Z" transform="translate(-301.519 -513.182)" fill="#ffa991"/>
    <g id="Group_15162" data-name="Group 15162" transform="translate(441.701 476.65)">
      <path id="Path_204163" data-name="Path 204163" d="M922.937,1082.815a.722.722,0,0,0,.285-1.385c-.18-.077-18.046-7.741-26.518-10.485s-23.195-6.116-23.342-6.15a.721.721,0,1,0-.321,1.406c.147.034,14.809,3.392,23.218,6.116s26.215,10.362,26.394,10.439A.733.733,0,0,0,922.937,1082.815Z" transform="translate(-872.479 -1064.776)" fill="#361e14"/>
    </g>
    <g id="Group_15163" data-name="Group 15163" transform="translate(448.626 461.86)">
      <path id="Path_204164" data-name="Path 204164" d="M943.569,1036.489a.722.722,0,0,0,.274-1.389c-.135-.056-13.631-5.586-25.426-9.4a230.7,230.7,0,0,0-23.9-6.155.722.722,0,0,0-.272,1.418,229.062,229.062,0,0,1,23.725,6.11c11.741,3.8,25.187,9.306,25.322,9.361A.706.706,0,0,0,943.569,1036.489Z" transform="translate(-893.664 -1019.534)" fill="#361e14"/>
    </g>
    <path id="Path_204165" data-name="Path 204165" d="M621.6,1027.522c.289.88,1.688.49,1.385-.39a83.659,83.659,0,0,1-4.17-32.613c-.491.231-1,.462-1.5.678A84.776,84.776,0,0,0,621.6,1027.522Z" transform="translate(-258.919 -540.838)" fill="#fff"/>
    <path id="Path_204166" data-name="Path 204166" d="M637.111,1023.692a227.208,227.208,0,0,0,11.083,22.584l1.27-.722c-1.371-2.424-2.684-4.892-3.969-7.374q4.805-2.814,9.625-5.614,1.905,3.81,4.055,7.533l1.256-.693c-10.707-18.644-17.576-39.395-16.74-60.954-.476.2-.952.433-1.457.664-.476,15.859,3.132,31.286,9.322,45.759a82.736,82.736,0,0,0-10,5.282q-1.667-3.551-3.2-7.187C637.992,1022.119,636.751,1022.855,637.111,1023.692Zm5.08,7.778a80.931,80.931,0,0,1,9.943-5.281c.751,1.7,1.53,3.406,2.338,5.079q-4.827,2.814-9.639,5.628C643.922,1035.092,643.057,1033.288,642.191,1031.469Z" transform="translate(-272.312 -530.023)" fill="#fff"/>
    <g id="Group_15164" data-name="Group 15164" transform="translate(359.913 485.61)">
      <path id="Path_204167" data-name="Path 204167" d="M622.3,1096.377a4.194,4.194,0,1,1,4.194,4.194A4.2,4.2,0,0,1,622.3,1096.377Zm1.443,0a2.751,2.751,0,1,0,2.751-2.751A2.754,2.754,0,0,0,623.742,1096.377Z" transform="translate(-622.299 -1092.183)" fill="#fff"/>
    </g>
    <path id="Path_204168" data-name="Path 204168" d="M645.368,1009.9a3.608,3.608,0,1,1,3.608,3.608A3.608,3.608,0,0,1,645.368,1009.9Z" transform="translate(-277.913 -548.761)" fill="#fff"/>
    <g id="Group_15165" data-name="Group 15165" transform="translate(460.081 291.519)">
      <path id="Path_204169" data-name="Path 204169" d="M958.375,513.539a.722.722,0,0,0,.621-1.087c-.175-.3-4.417-7.341-16.049-11.35a54.272,54.272,0,0,0-13.49-2.624.737.737,0,0,0-.754.687.721.721,0,0,0,.686.755,53.8,53.8,0,0,1,13.088,2.547c11.092,3.823,15.235,10.649,15.276,10.718A.722.722,0,0,0,958.375,513.539Z" transform="translate(-928.701 -498.477)" fill="#361e14"/>
    </g>
    <g id="Group_15166" data-name="Group 15166" transform="translate(545.142 350.918)">
      <path id="Path_204170" data-name="Path 204170" d="M1190.339,684.4h.018l108.571-1.338a1.443,1.443,0,0,0-.017-2.886h-.018l-108.571,1.338a1.443,1.443,0,0,0,.018,2.886Z" transform="translate(-1188.896 -680.173)" fill="#e99d52"/>
    </g>
    <g id="Group_15167" data-name="Group 15167" transform="translate(542.425 277.73)">
      <path id="Path_204171" data-name="Path 204171" d="M1182.027,479.259a1.44,1.44,0,0,0,.556-.113l47.981-20.075a1.443,1.443,0,0,0-1.113-2.662l-47.982,20.074a1.443,1.443,0,0,0,.557,2.775Z" transform="translate(-1180.583 -456.298)" fill="#e99d52"/>
    </g>
    <g id="Group_15168" data-name="Group 15168" transform="translate(513.443 208.724)">
      <path id="Path_204172" data-name="Path 204172" d="M1093.376,317.108a1.435,1.435,0,0,0,.815-.253l100.533-69.006a1.443,1.443,0,1,0-1.633-2.38l-100.533,69.006a1.443,1.443,0,0,0,.818,2.633Z" transform="translate(-1091.932 -245.216)" fill="#e99d52"/>
    </g>
    <g id="Group_15169" data-name="Group 15169" transform="translate(299.872 247.445)">
      <path id="Path_204173" data-name="Path 204173" d="M526.884,408.457a1.443,1.443,0,0,0,.628-2.742l-86.8-41.909a1.443,1.443,0,0,0-1.254,2.6l86.8,41.909A1.431,1.431,0,0,0,526.884,408.457Z" transform="translate(-438.637 -363.661)" fill="#e99d52"/>
    </g>
    <g id="Group_15170" data-name="Group 15170" transform="translate(259.132 323.432)">
      <path id="Path_204174" data-name="Path 204174" d="M315.46,609.442c.044,0,.087,0,.132-.006l115.444-10.462a1.443,1.443,0,0,0-.261-2.875L315.331,606.562a1.443,1.443,0,0,0,.129,2.88Z" transform="translate(-314.018 -596.096)" fill="#e99d52"/>
    </g>
    <g id="Group_15171" data-name="Group 15171" transform="translate(332.459 366.532)">
      <path id="Path_204175" data-name="Path 204175" d="M539.759,738.347a1.465,1.465,0,0,0,.3-.031l35.84-7.525a1.443,1.443,0,0,0-.593-2.824l-35.84,7.525a1.443,1.443,0,0,0,.3,2.855Z" transform="translate(-538.318 -727.934)" fill="#e99d52"/>
    </g>
    <g id="Group_15172" data-name="Group 15172" transform="translate(480.188 238.789)">
      <path id="Path_204176" data-name="Path 204176" d="M991.651,367.484a1.442,1.442,0,0,0,1.433-1.288l2.956-27.418a1.443,1.443,0,1,0-2.869-.31l-2.956,27.418a1.443,1.443,0,0,0,1.28,1.59A1.489,1.489,0,0,0,991.651,367.484Z" transform="translate(-990.207 -337.181)" fill="#e99d52"/>
    </g>
  </g>
</svg>
