<svg xmlns="http://www.w3.org/2000/svg" width="23.596" height="25.668" viewBox="0 0 23.596 25.668">
  <g id="icon" transform="translate(0.881 0.875)">
    <path id="Path_34105" data-name="Path 34105" d="M42.508,31.835a2.942,2.942,0,0,1-2.941,2.941H36.124A1.528,1.528,0,0,1,34.6,33.252L34,29.546a.726.726,0,0,0-.526-.609l-1.373-.38a.726.726,0,0,1-.477-.982l1.154-2.732a6.867,6.867,0,0,0,.576-2.805,10.416,10.416,0,0,1,.047-1.2,10.07,10.07,0,0,1,5.686-8.067A10.025,10.025,0,0,1,51.653,27.5a4.951,4.951,0,0,0-.86,2.818v5.412" transform="translate(-31.571 -11.808)" fill="none" stroke="#933" stroke-linecap="round" stroke-linejoin="round" stroke-width="1.75"/>
    <path id="Path_34106" data-name="Path 34106" d="M34.734,16.49a3.473,3.473,0,0,1-.026-.406,3.209,3.209,0,0,1,6.157-1.274" transform="translate(-26.537 -10.109)" fill="none" stroke="#933" stroke-linecap="round" stroke-linejoin="round" stroke-width="1.75"/>
    <path id="Path_34107" data-name="Path 34107" d="M37.072,13.632A2.919,2.919,0,0,1,37.5,13.6a2.792,2.792,0,0,1,2.37,4.264" transform="translate(-22.744 -8.931)" fill="none" stroke="#933" stroke-linecap="round" stroke-linejoin="round" stroke-width="1.75"/>
    <path id="Path_34108" data-name="Path 34108" d="M36.283,19.479a2.79,2.79,0,1,1,0-5.579,2.948,2.948,0,0,1,.372.023" transform="translate(-28.487 -8.451)" fill="none" stroke="#933" stroke-linecap="round" stroke-linejoin="round" stroke-width="1.75"/>
    <path id="Path_34109" data-name="Path 34109" d="M40.321,14.945a2.312,2.312,0,1,1-3.326,2.078" transform="translate(-22.868 -6.774)" fill="none" stroke="#933" stroke-linecap="round" stroke-linejoin="round" stroke-width="1.75"/>
    <path id="Path_34110" data-name="Path 34110" d="M39.135,15a1.594,1.594,0,0,1-2.849,1.232" transform="translate(-24.005 -6.691)" fill="none" stroke="#933" stroke-linecap="round" stroke-linejoin="round" stroke-width="1.75"/>
    <path id="Path_34111" data-name="Path 34111" d="M35.5,14.756A1.593,1.593,0,0,1,38.387,15.9" transform="translate(-25.265 -8.181)" fill="none" stroke="#933" stroke-linecap="round" stroke-linejoin="round" stroke-width="1.75"/>
    <path id="Path_34112" data-name="Path 34112" d="M36.508,15.358a1.8,1.8,0,0,0-1.8,1.8h0a1.8,1.8,0,0,0,1.8,1.8h1.175a1.872,1.872,0,0,1,1.873,1.87V22.37" transform="translate(-26.537 -6.112)" fill="none" stroke="#933" stroke-linecap="round" stroke-linejoin="round" stroke-width="1.75"/>
  </g>
</svg>
