<svg xmlns="http://www.w3.org/2000/svg" width="52.964" height="52.964" viewBox="0 0 52.964 52.964">
  <g id="linkedin_icon" data-name="linkedin icon" transform="translate(1.101 1.101)">
    <circle id="Ellipse_375" data-name="Ellipse 375" cx="25.381" cy="25.381" r="25.381" fill="none" stroke="#f66" stroke-miterlimit="10" stroke-width="2.202"/>
    <path id="Path_203422" data-name="Path 203422" d="M1310.1-1048.311h-5.561V-1065.6h5.561Zm-2.588-19.92h-.041a2.854,2.854,0,0,1-2.932-2.983,2.872,2.872,0,0,1,3-2.983,2.865,2.865,0,0,1,2.973,2.983A2.872,2.872,0,0,1,1307.512-1068.231Zm22.913,19.92h-5.562v-9.454c0-2.265-.808-3.812-2.821-3.812a3.041,3.041,0,0,0-2.851,2.052,3.737,3.737,0,0,0-.192,1.365v9.849h-5.562V-1065.6H1319v2.407a5.629,5.629,0,0,1,5.015-2.811c3.65,0,6.411,2.406,6.411,7.594Z" transform="translate(-1291 1086.045)" fill="#f66"/>
  </g>
</svg>
