<svg id="Group_15303" data-name="Group 15303" xmlns="http://www.w3.org/2000/svg" xmlns:xlink="http://www.w3.org/1999/xlink" width="53.81" height="56.666" viewBox="0 0 53.81 56.666">
  <defs>
    <clipPath id="clip-path">
      <path id="Path_204440" data-name="Path 204440" d="M1213.035,517.1h0c-.482,0-.977.014-1.459.028h0a28.34,28.34,0,0,0-26.905,28.3h0a28.343,28.343,0,0,0,28.364,28.333h0v-5.845a25.43,25.43,0,0,0,25.446-25.418h0a25.429,25.429,0,0,0-23.986-25.375h0c-.482-.014-.964-.028-1.459-.028Z" transform="translate(-1184.671 -517.096)" fill="none"/>
    </clipPath>
  </defs>
  <g id="Group_15302" data-name="Group 15302" transform="translate(0 0)">
    <path id="Path_204420" data-name="Path 204420" d="M1238.481,542.5h0a25.43,25.43,0,0,1-25.446,25.418v5.845a28.337,28.337,0,0,1-1.459-56.638c.482-.014.978-.028,1.459-.028s.978.014,1.459.028a25.429,25.429,0,0,1,23.986,25.375Z" transform="translate(-1184.671 -517.096)" fill="#eb4d53"/>
    <g id="Group_15301" data-name="Group 15301">
      <g id="Group_15300" data-name="Group 15300" clip-path="url(#clip-path)">
        <path id="Path_204421" data-name="Path 204421" d="M1369.635,714.4h0a2.114,2.114,0,0,1-1.261-.424l-5.752-4.274a28.458,28.458,0,0,1-8.685-10.572l-4.619-9.694a2.135,2.135,0,0,1,3.854-1.84l4.619,9.694a24.194,24.194,0,0,0,7.381,8.987l5.752,4.274a2.139,2.139,0,0,1,.425,2.986,2.115,2.115,0,0,1-1.714.863Z" transform="translate(-1315.825 -652.119)" fill="#663632"/>
        <path id="Path_204422" data-name="Path 204422" d="M1204.359,594.64h0a4.579,4.579,0,0,0,.042-2.76h0a4.615,4.615,0,0,1,3.1-5.7,4.548,4.548,0,0,0,2.975-5.59,4.594,4.594,0,0,1,2.989-5.746h0a4.5,4.5,0,0,0,2.65-2.123,4.931,4.931,0,0,1,5.483-2.293l7.495,1.854a4.558,4.558,0,0,1-3.032,5.689h0a4.49,4.49,0,0,0-3.046,5.59,4.559,4.559,0,0,1-3,5.774c-2.919.892-3.584,3.269-2.89,6.241a6.841,6.841,0,0,1-12.78,4.783,6.826,6.826,0,0,1,.014-5.717Z" transform="translate(-1199.868 -559.514)" fill="#001225"/>
        <path id="Path_204423" data-name="Path 204423" d="M1256.714,624.234h0a11.179,11.179,0,0,1-5.752,11.789l-2.352,1.26a4.294,4.294,0,0,1-6.121-2.533,4.615,4.615,0,0,1,3.1-5.7,4.551,4.551,0,0,0,2.975-5.576,4.609,4.609,0,0,1,2.989-5.76h0l5.157,6.524Z" transform="translate(-1230.631 -597.345)" fill="#001225"/>
        <path id="Path_204424" data-name="Path 204424" d="M1272.324,680.8h0l-.014-.057a9.705,9.705,0,0,1,0-3.835l.836-3.934a10.065,10.065,0,0,0-4.35-2.193.613.613,0,0,1-.071-.014l-6.985-1.528-6.546,1.429c-.184.043-.354.085-.538.142a7.115,7.115,0,0,0-4.888,5.816l4,10.671,3.358,11.6h14.806l-.326-10.26a9.352,9.352,0,0,1,.453-3.128,9.181,9.181,0,0,0,.269-4.713Z" transform="translate(-1236.593 -638.445)" fill="#f98828"/>
        <path id="Path_204425" data-name="Path 204425" d="M1294.68,669.241h0l5.172,1.132-1.927,5.859a2.5,2.5,0,0,1-2.408,1.741,2.467,2.467,0,0,1-2.394-1.741l-2.054-6.2,3.613-.792Z" transform="translate(-1269.532 -638.445)" fill="#663632"/>
        <path id="Path_204426" data-name="Path 204426" d="M1296.6,648.65h0v-6.623a2.366,2.366,0,0,1,4.732-.014l.014,6.921-4.746-.283Z" transform="translate(-1273.942 -614.855)" fill="#663632"/>
        <path id="Path_204427" data-name="Path 204427" d="M1321.627,579.138h0a4.64,4.64,0,1,1,4.888,4.359,4.636,4.636,0,0,1-4.888-4.359Z" transform="translate(-1293.901 -562.679)" fill="#001225"/>
        <path id="Path_204428" data-name="Path 204428" d="M1294.889,573.674h0a7.318,7.318,0,0,1-4.208,5.788c-6.772.382-12.511-4.317-12.766-9.142l-.2-3.566a8.246,8.246,0,0,1,8.118-8.69,8.373,8.373,0,0,1,8.373,7.968c.042.708.085,1.4.128,2.038a9.2,9.2,0,0,0,.34,1.981,8.452,8.452,0,0,1,.213,3.623Z" transform="translate(-1258.874 -549.771)" fill="#663632"/>
        <path id="Path_204429" data-name="Path 204429" d="M1286.557,555.4h0a1.339,1.339,0,0,0,1.643-1.4l-.057-.92a10.066,10.066,0,0,0-11.15-9.44,10.171,10.171,0,0,0-8.954,10.742l.142,2.434,5.894-.34a7.671,7.671,0,0,0,7.1-6.114l.567.071a5.488,5.488,0,0,1,4.817,4.968Z" transform="translate(-1251.151 -538.22)" fill="#001225"/>
        <path id="Path_204430" data-name="Path 204430" d="M1275.11,549.557h0c1.757-1.911.879-5.449-1.516-5.916a12.822,12.822,0,0,0-6.078.156c-4.307,1.245-7.382,5.732-7.155,11.01a8.9,8.9,0,0,0,.241,1.613c.524,2.463,2.55,4.1,4.675,3.779l9.833-10.642Z" transform="translate(-1245.032 -538.037)" fill="#001225"/>
        <path id="Path_204431" data-name="Path 204431" d="M1272.685,609.792h0a2.718,2.718,0,0,1,2.862,2.547l.156,2.7L1273,615.2a2.708,2.708,0,1,1-.312-5.406Z" transform="translate(-1252.821 -591.026)" fill="#663632"/>
        <path id="Path_204432" data-name="Path 204432" d="M1277.258,584.8h0a.617.617,0,0,1-.581-.368.662.662,0,0,1,.312-.877,3.7,3.7,0,0,1,1.346-.34,2.361,2.361,0,0,0,2.225-2.491,3.685,3.685,0,0,1,3.471-3.878,2.37,2.37,0,0,0,2.224-2.491.653.653,0,1,1,1.3-.071,3.618,3.618,0,0,1-.921,2.646,3.657,3.657,0,0,1-2.536,1.231,2.351,2.351,0,0,0-2.225,2.491,3.686,3.686,0,0,1-3.471,3.878,2.28,2.28,0,0,0-.864.212.637.637,0,0,1-.283.056Z" transform="translate(-1258.004 -562.209)" fill="#001225"/>
        <path id="Path_204433" data-name="Path 204433" d="M1318.593,610.182h0a.7.7,0,0,1-1.247-.651.719.719,0,0,1,.949-.3.7.7,0,0,1,.3.948Z" transform="translate(-1290.427 -590.525)" fill="#0a0f22"/>
        <path id="Path_204434" data-name="Path 204434" d="M1312.727,609.585h0a.717.717,0,0,1-.184-.028,1.771,1.771,0,0,0-1.148-.028l-.071.028a.542.542,0,1,1-.326-1.033l.071-.014a2.885,2.885,0,0,1,1.828.028.541.541,0,0,1,.326.694.533.533,0,0,1-.5.354Z" transform="translate(-1285.128 -589.899)" fill="#0a0f22"/>
        <path id="Path_204435" data-name="Path 204435" d="M1350.675,612.16h0a.7.7,0,0,1-.949.312.717.717,0,0,1-.3-.948.694.694,0,0,1,.949-.3.684.684,0,0,1,.3.934Z" transform="translate(-1316.02 -592.107)" fill="#0a0f22"/>
        <path id="Path_204436" data-name="Path 204436" d="M1344.786,611.562h0a.818.818,0,0,1-.184-.028,1.771,1.771,0,0,0-1.148-.014l-.071.014a.553.553,0,0,1-.68-.354.531.531,0,0,1,.354-.665l.071-.028a2.985,2.985,0,0,1,1.828.028.548.548,0,0,1,.34.693.566.566,0,0,1-.51.354Z" transform="translate(-1310.698 -591.48)" fill="#0a0f22"/>
        <path id="Path_204437" data-name="Path 204437" d="M1324.6,636.308h0a.647.647,0,0,1,.552.991,3.518,3.518,0,0,1-6.064.042.645.645,0,0,1,.552-.991l4.959-.043Z" transform="translate(-1291.8 -612.178)" fill="#0a0f22"/>
        <path id="Path_204438" data-name="Path 204438" d="M1319.64,636.35h0l4.591-.043v.878a.541.541,0,0,1-.539.552h-4.335a3.865,3.865,0,0,1-.269-.4.645.645,0,0,1,.552-.991Z" transform="translate(-1291.8 -612.178)" fill="#f2f3f3"/>
        <path id="Path_204439" data-name="Path 204439" d="M1229.424,733.336h0a.014.014,0,0,1-.014-.014,2.115,2.115,0,0,1-2.111-2.151l.1-10.968a60.045,60.045,0,0,1,2.04-14.888l2.409-9.058a2.139,2.139,0,0,1,4.137,1.09l-2.423,9.072a55.6,55.6,0,0,0-1.884,13.827l-.113,10.968a2.142,2.142,0,0,1-2.14,2.123Z" transform="translate(-1218.671 -658.725)" fill="#663632"/>
      </g>
    </g>
  </g>
</svg>
