<svg id="owl-icon-Coral" xmlns="http://www.w3.org/2000/svg" xmlns:xlink="http://www.w3.org/1999/xlink" width="86.124" height="90.274" viewBox="0 0 86.124 90.274">
  <defs>
    <clipPath id="clip-path">
      <path id="Path_203452" data-name="Path 203452" d="M2218.1,310.46a38.992,38.992,0,0,1-39,38.986v8.974a43.478,43.478,0,0,1-2.231-86.9c.735-.035,1.483-.059,2.231-.059s1.5.024,2.243.059A39.006,39.006,0,0,1,2218.1,310.46Z" fill="none"/>
    </clipPath>
  </defs>
  <g id="Group_14518" data-name="Group 14518" transform="translate(-2134.045 -270.222)">
    <g id="Group_14517" data-name="Group 14517" clip-path="url(#clip-path)">
      <path id="Path_203440" data-name="Path 203440" d="M2203.111,357.9c-1.888,3.128-15.926,5.786-27.6-.932s-18.242-17.191-14.673-23.394,15.926-5.786,27.6.931S2205.038,354.7,2203.111,357.9Z" fill="#f66"/>
      <path id="Path_203441" data-name="Path 203441" d="M2220.244,346.909a.738.738,0,0,1-.5.7c-.116.018-.233.031-.349.043-4.526.5-10.126.644-17.056.687q-3.2.018-6.8.018A43.068,43.068,0,0,1,2153,311.026V307a24.672,24.672,0,0,1,49.344,0v15.681a24.763,24.763,0,0,0,17.135,23.483q.222.073.46.147A.741.741,0,0,1,2220.244,346.909Z" fill="#f66"/>
      <g id="Group_14516" data-name="Group 14516">
        <g id="Group_14515" data-name="Group 14515">
          <path id="Path_203442" data-name="Path 203442" d="M2198.256,299.685c0,.968-.044,1.924-.135,2.862-1.161,12.6-9.923,22.391-20.562,22.391s-19.4-9.791-20.565-22.4c-.088-.935-.132-1.89-.132-2.855,0-.78.031-1.55.088-2.312.041-.189.091-.378.145-.567,1.836-6.376,9.032-9.9,16.07-7.868a5.624,5.624,0,0,0,8.792,0c7.038-2.029,14.23,1.492,16.066,7.868.055.189.1.381.146.57Q2198.255,298.515,2198.256,299.685Z" fill="#fff"/>
          <path id="Path_203443" data-name="Path 203443" d="M2156.994,302.54c-.088-.935-.132-1.89-.132-2.855,0-.78.031-1.55.088-2.312" fill="#fff"/>
          <path id="Path_203444" data-name="Path 203444" d="M2198.169,297.376q.086,1.139.087,2.309c0,.968-.044,1.924-.135,2.862" fill="#fff"/>
        </g>
        <path id="Path_203445" data-name="Path 203445" d="M2200.824,294.4c-2.235-.517-4.017-1.242-5.954-1.784-4.259-1.191-9.828-.618-13.078,1.844a1.415,1.415,0,0,1-1.457,0,8.184,8.184,0,0,0-5.551,0,1.415,1.415,0,0,1-1.457,0c-3.251-2.462-8.819-3.035-13.078-1.844-1.938.542-3.719,1.267-5.954,1.784a.347.347,0,0,0-.269.338v1.408a.348.348,0,0,0,.252.334,1.8,1.8,0,0,1,1.357,1.432c.629,8.037,4.244,10.2,9.08,9.968,5.56-.267,9.086-3.365,10.263-9.728a1.18,1.18,0,0,0-.035-.55c-.214-.728.179-1.868,2.616-1.868s2.831,1.14,2.616,1.868a1.189,1.189,0,0,0-.034.55c1.177,6.363,4.7,9.461,10.263,9.728,4.836.235,8.45-1.931,9.08-9.968a1.8,1.8,0,0,1,1.357-1.432.347.347,0,0,0,.251-.334v-1.408A.347.347,0,0,0,2200.824,294.4Zm-28.7,8.452a8.789,8.789,0,0,1-10.649,3.645c-2.444-.943-4.188-3.2-4.077-8.853.115-4.914,9.481-5.786,13.828-3.3a4.4,4.4,0,0,1,2.179,3.456A8.566,8.566,0,0,1,2172.12,302.851Zm21.528,3.645A8.789,8.789,0,0,1,2183,302.851a8.574,8.574,0,0,1-1.282-5.057,4.4,4.4,0,0,1,2.18-3.456c4.347-2.481,13.713-1.609,13.828,3.3C2197.836,303.292,2196.091,305.553,2193.648,306.5Z" fill="#f66"/>
        <path id="Path_203446" data-name="Path 203446" d="M2166.836,296.2a3.027,3.027,0,1,1-4.751,1.134A4.139,4.139,0,0,1,2166.836,296.2Z" fill="#f66"/>
        <circle id="Ellipse_380" data-name="Ellipse 380" cx="0.633" cy="0.633" r="0.633" transform="translate(2166.544 297.592)" fill="#fff"/>
        <path id="Path_203447" data-name="Path 203447" d="M2188.052,296.2a3.027,3.027,0,1,0,4.752,1.134A4.137,4.137,0,0,0,2188.052,296.2Z" fill="#f66"/>
        <circle id="Ellipse_381" data-name="Ellipse 381" cx="0.633" cy="0.633" r="0.633" transform="translate(2190.59 297.592)" fill="#fff"/>
        <path id="Path_203448" data-name="Path 203448" d="M2177.559,299.39c3.942,2.459,2.279,9.174.84,13.9a.878.878,0,0,1-1.68,0c-1.438-4.726-3.1-11.442.84-13.9Zm0,1.338c2.8,2.315,1.343,6.938,0,9.757v-9.757Z" fill="#f66" fill-rule="evenodd"/>
      </g>
      <path id="Path_203449" data-name="Path 203449" d="M2216.518,363.6c-2.408,1.239-16.432-4.134-22.335-16.239s-5.473-24.462.96-27.6,16.432,4.134,22.335,16.24S2219.148,362.249,2216.518,363.6Z" fill="#f66"/>
      <path id="Path_203450" data-name="Path 203450" d="M2187.051,284.215a10.226,10.226,0,0,0,4.872.84,38.665,38.665,0,0,0,5.2-1.1,8.5,8.5,0,0,1,5.226.2,6.269,6.269,0,0,0-3.321,1.456,20.32,20.32,0,0,1-3,2.129,8.35,8.35,0,0,1-7.334-.306" fill="#f66" fill-rule="evenodd"/>
      <path id="Path_203451" data-name="Path 203451" d="M2168.285,284.215a10.222,10.222,0,0,1-4.871.84,38.586,38.586,0,0,1-5.2-1.1,8.508,8.508,0,0,0-5.227.2,6.267,6.267,0,0,1,3.321,1.456,20.383,20.383,0,0,0,2.995,2.129,8.352,8.352,0,0,0,7.335-.306" fill="#f66" fill-rule="evenodd"/>
    </g>
  </g>
  <path id="Path_203453" data-name="Path 203453" d="M2205.107,279.268c-11.59-9.745-28.4-11.5-42.208-5.836a44.063,44.063,0,0,0-17.9,12.523,45.1,45.1,0,0,0-9.976,38.832c4.04,19.433,20.936,34.44,40.839,35.56l3.233.147.09,0a1.991,1.991,0,0,0,1.984-2.076c0-2.364-.04-4.729-.079-7.093a38.9,38.9,0,0,0,18.94-6.433,37.372,37.372,0,0,0,9.388-7.316C2225.5,320.714,2223.108,293.764,2205.107,279.268Zm-34.764,76.085c-.989-.3-3.307-.783-4.239-1.191a41.826,41.826,0,0,1-1.554-78.944c12.716-4.492,27.319-3.02,38.447,6.577,19.61,17.071,15.922,47.211-4.244,60.739a37.533,37.533,0,0,1-16.017,4.827l-3.638.12-.04,0a2,2,0,0,0-1.924,1.963c-.036,2.262-.072,4.523-.091,6.785l-.885-.05A41.455,41.455,0,0,1,2170.343,355.353Z" transform="translate(-2134.045 -270.222)" fill="#f66"/>
</svg>
