<svg id="Group_15215" data-name="Group 15215" xmlns="http://www.w3.org/2000/svg" width="56.228" height="55.986" viewBox="0 0 56.228 55.986">
  <path id="Path_204259" data-name="Path 204259" d="M1639.826,675.919a5.106,5.106,0,1,0,5.107-5.106A5.113,5.113,0,0,0,1639.826,675.919Zm8.266,0a3.16,3.16,0,1,1-3.159-3.16A3.163,3.163,0,0,1,1648.092,675.919Z" transform="translate(-1634.817 -635.421)"/>
  <path id="Path_204260" data-name="Path 204260" d="M1676.822,675.919a5.106,5.106,0,1,0,5.106-5.106A5.112,5.112,0,0,0,1676.822,675.919Zm8.266,0a3.16,3.16,0,1,1-3.16-3.16A3.164,3.164,0,0,1,1685.088,675.919Z" transform="translate(-1653.815 -635.421)"/>
  <path id="Path_204261" data-name="Path 204261" d="M1713.816,675.919a5.106,5.106,0,1,0,5.107-5.106A5.113,5.113,0,0,0,1713.816,675.919Zm8.267,0a3.16,3.16,0,1,1-3.16-3.16A3.164,3.164,0,0,1,1722.083,675.919Z" transform="translate(-1672.813 -635.421)"/>
  <path id="Path_204262" data-name="Path 204262" d="M1684.293,698.6l-5.792-2.474h-5.723l-5.8,2.484-.338,1.349-.343-1.36-5.791-2.474h-5.723l-5.8,2.484-.339,1.349-.343-1.36-5.791-2.474h-5.724l-5.8,2.484-1.453,5.8h56.228Zm-52.27,3.861.612-2.441,4.548-1.947h4.927l4.538,1.939.618,2.451Zm18,0,.613-2.441,4.547-1.947h4.927l4.538,1.939.619,2.451Zm18,0,.612-2.441,4.547-1.947h4.926l4.538,1.939.619,2.451Z" transform="translate(-1629.529 -648.418)"/>
  <path id="Path_204263" data-name="Path 204263" d="M1631.568,626.724h33.546v4.522h1.946V617.237h-11.5a.522.522,0,0,1-.521-.521V615.6a.522.522,0,0,1,.521-.521h21.67a.522.522,0,0,1,.521.521v11.014l-2.032,1.089v3.547h1.946v-2.382l2.032-1.088v-1.052h6.109V598.062h-54.242Zm1.946-26.716h50.35v24.77H1679.7V615.6a2.47,2.47,0,0,0-2.467-2.467h-21.67a2.47,2.47,0,0,0-2.467,2.467v1.12a2.47,2.47,0,0,0,2.467,2.466h9.551v5.6h-31.6Z" transform="translate(-1630.576 -598.062)"/>
  <path id="Path_204264" data-name="Path 204264" d="M1708.6,615.435a4.573,4.573,0,1,0-4.573-4.573A4.579,4.579,0,0,0,1708.6,615.435Zm0-7.2a2.627,2.627,0,1,1-2.627,2.627A2.63,2.63,0,0,1,1708.6,608.235Z" transform="translate(-1667.786 -602.287)"/>
</svg>
