<svg id="Group_15315" data-name="Group 15315" xmlns="http://www.w3.org/2000/svg" xmlns:xlink="http://www.w3.org/1999/xlink" width="53.81" height="56.636" viewBox="0 0 53.81 56.636">
  <defs>
    <clipPath id="clip-path">
      <path id="Path_204503" data-name="Path 204503" d="M1619.473,906.622h0c-.5,0-.977.014-1.459.028h0a25.431,25.431,0,0,0-23.986,25.369h0a25.42,25.42,0,0,0,25.446,25.4h0v5.84a28.344,28.344,0,0,0,28.365-28.325h0a28.346,28.346,0,0,0-26.905-28.283h0c-.482-.014-.977-.028-1.459-.028Z" transform="translate(-1594.027 -906.622)" fill="none"/>
    </clipPath>
  </defs>
  <g id="Group_15314" data-name="Group 15314" transform="translate(0 0)">
    <path id="Path_204488" data-name="Path 204488" d="M1594.027,932.02h0a25.42,25.42,0,0,0,25.446,25.4v5.84a28.322,28.322,0,0,0,1.459-56.608c-.482-.014-.977-.028-1.459-.028s-.977.014-1.459.028a25.431,25.431,0,0,0-23.986,25.369Z" transform="translate(-1594.027 -906.622)" fill="#eb4d53"/>
    <g id="Group_15313" data-name="Group 15313" transform="translate(0 0)">
      <g id="Group_15312" data-name="Group 15312" clip-path="url(#clip-path)">
        <path id="Path_204489" data-name="Path 204489" d="M1742.6,1095.058h-.071a4.23,4.23,0,0,1-4.123-3.422l-3.188-16.234a2.462,2.462,0,0,1,4.831-.947l2.9,14.707a2.479,2.479,0,0,1,3.8,2.588,4.227,4.227,0,0,1-4.151,3.309Z" transform="translate(-1705.277 -1037.347)" fill="#975e1c"/>
        <path id="Path_204490" data-name="Path 204490" d="M1662.417,986.615h0a4.208,4.208,0,0,0,1.247-.594,4,4,0,0,0,1.4-4.822c-.014-.014-.014-.014-.014-.028a5.361,5.361,0,0,0-1.261-1.768h0a5.965,5.965,0,0,1-1.218-1.626,5.512,5.512,0,0,1-.567-2.715h0a5.551,5.551,0,0,0-.425-2.362,5.38,5.38,0,0,0-1.374-1.966,5.821,5.821,0,0,1-1.558-2.574.451.451,0,0,0-.652-.255l-17.469.551a2.037,2.037,0,0,0-1.941,2.4,5.809,5.809,0,0,1-.538,3.507,5.646,5.646,0,0,0-.624,2.291,5.57,5.57,0,0,0,.411,2.39h0a5.743,5.743,0,0,1,.382,2.758,5.543,5.543,0,0,1-.609,1.923h0c-.071.141-.128.283-.184.424a.7.7,0,0,0-.057.156,3.1,3.1,0,0,0,2.593,4.1l.538.057a54.945,54.945,0,0,0,21.918-1.853Z" transform="translate(-1628.045 -954.882)" fill="#2c1a11"/>
        <path id="Path_204491" data-name="Path 204491" d="M1704.821,1014.515h0l4-.283a3.915,3.915,0,0,0,3.627-4.186l-.453-6.265-7.906.566.737,10.168Z" transform="translate(-1680.777 -983.207)" fill="#20100d"/>
        <path id="Path_204492" data-name="Path 204492" d="M1672.666,1072.791h0a14.171,14.171,0,0,1,.4-4.087l.567-2.347a3.707,3.707,0,0,0-2.678-4.469h-.042l-8.416-2.079-8.642,2.093a.053.053,0,0,0-.043.014,3.709,3.709,0,0,0-2.706,4.483l1.048,4.327a61.359,61.359,0,0,1,1.743,14.537v5.091h16.945l-.014-8.838a10,10,0,0,1,.921-4.158,9.967,9.967,0,0,0,.921-4.568Z" transform="translate(-1638.932 -1027.369)" fill="#975e1c"/>
        <path id="Path_204493" data-name="Path 204493" d="M1688.152,1067.6h0a6.33,6.33,0,0,0,6.319-5.9l-7.693-1.895-4.959,1.2a1.62,1.62,0,0,0-.014.269,6.346,6.346,0,0,0,6.347,6.321Z" transform="translate(-1663.216 -1027.369)" fill="#f27b6b"/>
        <path id="Path_204494" data-name="Path 204494" d="M1693.761,1027.978h0a2.666,2.666,0,0,1,3.046,2.362l.609,6.279a2.669,2.669,0,0,1-.624,1.98h0a2.665,2.665,0,0,1-4.675-1.457l-.6-6.137a2.8,2.8,0,0,1,2.239-3.026Z" transform="translate(-1670.866 -1002.255)" fill="#f27b6b"/>
        <path id="Path_204495" data-name="Path 204495" d="M1669.954,937.97h0a4.3,4.3,0,0,1,5.171,3.2l1.275,5.4a4.6,4.6,0,0,0,.963,1.951,4.622,4.622,0,0,1,.977,1.952h0a11.809,11.809,0,0,1,.043,5.176h0a6.23,6.23,0,0,1-4.661,4.723l-.893.2a7.24,7.24,0,0,1-7.58-2.885l-.538-.778a8.432,8.432,0,0,1-1.275-2.842c-.5-2.164-1.36-5.869-1.488-6.406-1.119-4.766,1.417-7.948,5.4-9.079.1-.028.213-.042.312-.071l2.3-.537Z" transform="translate(-1647.356 -931.239)" fill="#f38376"/>
        <path id="Path_204496" data-name="Path 204496" d="M1688.665,993.183h0a.428.428,0,0,1-.468-.608,1.58,1.58,0,0,1,1.006-.764,1.543,1.543,0,0,1,1.233.226.417.417,0,0,1-.142.75l-1.629.4Z" transform="translate(-1668.221 -973.739)" fill="#001225"/>
        <path id="Path_204497" data-name="Path 204497" d="M1718.592,985.934h0a.419.419,0,0,1-.468-.608,1.5,1.5,0,0,1,.992-.749,1.526,1.526,0,0,1,1.219.212.428.428,0,0,1-.142.764l-1.6.382Z" transform="translate(-1691.8 -968.031)" fill="#001225"/>
        <path id="Path_204498" data-name="Path 204498" d="M1653.021,932.1h0l-2.38.551a11.319,11.319,0,0,0-5.894,3.521l-.2.212a6.508,6.508,0,0,0-1.247,6.59,6.431,6.431,0,0,1,.17,3.931l-.142.566a1.57,1.57,0,0,0,.184,1.23l4.7,7.679c2.55-.127,3.981-3.606,3.386-6.095h0a6.1,6.1,0,0,1,.978-4.667h0a5.7,5.7,0,0,0,.978-2.234,5.857,5.857,0,0,0,0-2.432,5.638,5.638,0,0,1-.042-2.234,2.414,2.414,0,0,1,.921-1.5l.17.043h0a4.286,4.286,0,0,0,5.143,3.182l1.658-.4a1.528,1.528,0,0,1,1.247,1.16l1.119,2.687-.666-4.879a8.27,8.27,0,0,0-10.088-6.915Z" transform="translate(-1632.549 -926.532)" fill="#2c1a11"/>
        <path id="Path_204499" data-name="Path 204499" d="M1705.034,1012.654h0a.658.658,0,0,1,.779.834,3.53,3.53,0,0,1-5.908,1.428.661.661,0,0,1,.312-1.1l4.817-1.159Z" transform="translate(-1677.335 -990.183)" fill="#0a0f22"/>
        <path id="Path_204500" data-name="Path 204500" d="M1700.217,1014.206h0l4.463-1.075.213.849a.563.563,0,0,1-.411.665l-4.222.976c-.113-.1-.241-.2-.354-.311a.661.661,0,0,1,.312-1.1Z" transform="translate(-1677.335 -990.576)" fill="#f2f3f3"/>
        <path id="Path_204501" data-name="Path 204501" d="M1611.1,1091.63h0a2.444,2.444,0,0,1-2.3-1.57,5.5,5.5,0,0,1,.793-5.4l8.388-10.875a2.464,2.464,0,0,1,3.91,3l-8.387,10.875a.616.616,0,0,0-.1.636,2.445,2.445,0,0,1-2.309,3.337Z" transform="translate(-1605.38 -1037.625)" fill="#975e1c"/>
        <path id="Path_204502" data-name="Path 204502" d="M1628.194,1145.341H1614.8a5.548,5.548,0,0,1-5.214-3.578,2.466,2.466,0,0,1,4.6-1.768.629.629,0,0,0,.609.424h13.389a2.461,2.461,0,1,1,0,4.921Z" transform="translate(-1606.162 -1089.327)" fill="#ed5950"/>
      </g>
    </g>
  </g>
</svg>
