<svg id="Group_15299" data-name="Group 15299" xmlns="http://www.w3.org/2000/svg" xmlns:xlink="http://www.w3.org/1999/xlink" width="53.81" height="56.603" viewBox="0 0 53.81 56.603">
  <defs>
    <clipPath id="clip-path">
      <path id="Path_204419" data-name="Path 204419" d="M1689.3,117.791h0c-.5,0-.978.014-1.459.028h0a25.409,25.409,0,0,0-23.986,25.341h0a25.413,25.413,0,0,0,25.446,25.383h0v5.851a28.336,28.336,0,0,0,28.365-28.309h0a28.318,28.318,0,0,0-26.905-28.266h0c-.482-.014-.978-.028-1.459-.028Z" transform="translate(-1663.857 -117.791)" fill="none"/>
    </clipPath>
  </defs>
  <g id="Group_15298" data-name="Group 15298" transform="translate(0 0)">
    <path id="Path_204402" data-name="Path 204402" d="M1663.857,143.16h0a25.413,25.413,0,0,0,25.446,25.383v5.851a28.3,28.3,0,0,0,1.459-56.575c-.482-.014-.978-.028-1.459-.028s-.978.014-1.459.028a25.409,25.409,0,0,0-23.986,25.341Z" transform="translate(-1663.857 -117.791)" fill="#eb4d53"/>
    <path id="Path_204403" data-name="Path 204403" d="M1714.8,355.651h0a4.8,4.8,0,0,0-8.742-2.375,6.243,6.243,0,0,0-.552,1.06l-.085.212a2.814,2.814,0,0,0,5.285,1.936,1.282,1.282,0,0,1,1.218-.82,3.869,3.869,0,0,0,.4-.014Z" transform="translate(-1697.67 -308.46)" fill="#f38376"/>
    <path id="Path_204404" data-name="Path 204404" d="M1849.558,355.651h0a4.8,4.8,0,0,0-8.742-2.375,5.423,5.423,0,0,0-.567,1.06l-.085.212a2.8,2.8,0,0,0,.524,2.812,2.882,2.882,0,0,0,1.148.792,2.831,2.831,0,0,0,3.627-1.668,1.248,1.248,0,0,1,1.2-.82,3.727,3.727,0,0,0,.4-.014Z" transform="translate(-1807.748 -308.46)" fill="#f38376"/>
    <g id="Group_15297" data-name="Group 15297">
      <g id="Group_15296" data-name="Group 15296" clip-path="url(#clip-path)">
        <path id="Path_204405" data-name="Path 204405" d="M1726.633,311.571h0a9.237,9.237,0,0,1-1.247-.085l.581-4.226a4.877,4.877,0,0,0,5.384-3.562l3.386-12.508,4.123,1.1-3.386,12.522a9.185,9.185,0,0,1-8.841,6.756Z" transform="translate(-1714.122 -259.448)" fill="#d2c6ae"/>
        <path id="Path_204406" data-name="Path 204406" d="M1798.579,316.909h-14.451V293.038a6.248,6.248,0,0,1,6.262-6.247h8.1a6.244,6.244,0,0,1,6.05,7.858l-3.414,12.72a2.623,2.623,0,0,1-2.55,1.965v7.575Z" transform="translate(-1762.111 -255.854)" fill="#f8fbf8"/>
        <path id="Path_204407" data-name="Path 204407" d="M1848.678,359.643h0l-.666-12.126a6.5,6.5,0,0,1,4.86-6.643l3.358-.89-2.919,10.84a2.624,2.624,0,0,1-2.55,1.965v6.855Z" transform="translate(-1814.292 -299.309)" fill="#d2c6ae"/>
        <path id="Path_204408" data-name="Path 204408" d="M1880.488,325.685Zm.042.014Zm.014,4.212h0a4.589,4.589,0,0,1-.978-.1,4.236,4.236,0,0,1-3.315-3.985l-.411-11.01,4.265-.156.425,11h0v.014h0l3.755,1.964a4.178,4.178,0,0,1-3.74,2.275Z" transform="translate(-1837.035 -278.622)" fill="#f8fbf8"/>
        <path id="Path_204409" data-name="Path 204409" d="M1778.987,146.246h0a7.847,7.847,0,0,0-9.578,8.211l.722,9.808a2.334,2.334,0,0,1-1.4,2.318h0a2.334,2.334,0,0,0-1.375,2.516l.68,4.028a5.276,5.276,0,0,0,5.214,4.4,1.572,1.572,0,0,0,1.558-1.809,2.849,2.849,0,0,1,1.275-2.827l2.649-1.7-.425-24.1.68-.848Z" transform="translate(-1748.384 -140.875)" fill="#a62a29"/>
        <path id="Path_204410" data-name="Path 204410" d="M1780.1,205.937h0a2.278,2.278,0,0,0,.2-1.117l-.524-7.194a1.808,1.808,0,0,1,1.8-1.936h3.018l4.208,10.2.1,5.851-2.649,1.7a2.834,2.834,0,0,0-1.105,1.343l-2.054-1.979a2.991,2.991,0,0,1-.85-2.784,2.984,2.984,0,0,0-.793-2.728l-1.346-1.357Z" transform="translate(-1758.551 -181.43)" fill="#6a2027"/>
        <path id="Path_204411" data-name="Path 204411" d="M1826.524,244.592h0a2.687,2.687,0,0,1-2.692-2.685v-6.628a2.687,2.687,0,0,1,2.692-2.685h0a2.685,2.685,0,0,1,2.678,2.685v6.628a2.685,2.685,0,0,1-2.678,2.685Z" transform="translate(-1794.547 -211.577)" fill="#f3795f"/>
        <path id="Path_204412" data-name="Path 204412" d="M1793.184,179.129h0a5.777,5.777,0,0,1-5.766-5.342l-.581-7.943a6.362,6.362,0,0,1,6.347-6.826h0a6.854,6.854,0,0,1,6.857,6.84v6.431a6.854,6.854,0,0,1-6.857,6.84Z" transform="translate(-1764.31 -151.471)" fill="#f3795f"/>
        <path id="Path_204413" data-name="Path 204413" d="M1823.664,165.969h0V165.3a3.931,3.931,0,0,0-1.332-2.954,3.833,3.833,0,0,1-1.275-2.36l-1.374-8.89a6.61,6.61,0,0,0-6.192-5.625,22.224,22.224,0,0,0-6.007.537,1.08,1.08,0,0,0-.793,1.413l1.36,3.731a2.179,2.179,0,0,0,2.012,1.456,2.1,2.1,0,0,1,2.083,1.852l.085.678a3.56,3.56,0,0,0,1.955,2.756,1.705,1.705,0,0,1,.964,1.541v12.183a5.42,5.42,0,0,0,5.426,5.413h1.332a4.614,4.614,0,0,0,4.619-4.607v-3.6a1.434,1.434,0,0,0-1.431-1.427,1.425,1.425,0,0,1-1.431-1.428Z" transform="translate(-1780.494 -140.388)" fill="#a62a29"/>
        <path id="Path_204414" data-name="Path 204414" d="M1853.165,234.37h0V222.06a2.481,2.481,0,0,0,1.474,2.261,2.587,2.587,0,0,1,1.544,2.36V228.7a6.838,6.838,0,0,1-3.018,5.667Z" transform="translate(-1818.51 -202.811)" fill="#6a2027"/>
        <path id="Path_204415" data-name="Path 204415" d="M1790.523,205.6h0a.827.827,0,1,0,0-1.653.827.827,0,0,0,0,1.653Z" transform="translate(-1766.664 -188.178)" fill="#0a0f22"/>
        <path id="Path_204416" data-name="Path 204416" d="M1826.448,205.6h0a.827.827,0,1,0-.836-.82.821.821,0,0,0,.836.82Z" transform="translate(-1796.001 -188.178)" fill="#0a0f22"/>
        <path id="Path_204417" data-name="Path 204417" d="M1806.635,240.41h.4a2.772,2.772,0,0,0,2.451-1.47.9.9,0,0,0-.807-1.328h-2.933a.951.951,0,0,0-.949.961,1.836,1.836,0,0,0,1.842,1.837Z" transform="translate(-1778.993 -215.677)" fill="#0a0f22"/>
        <path id="Path_204418" data-name="Path 204418" d="M1811.139,237.612h2.72a.9.9,0,0,1,.807,1.328.108.108,0,0,1-.028.071h-2.791a.7.7,0,0,1-.708-.707v-.692Z" transform="translate(-1784.177 -215.677)" fill="#f8fbf8"/>
      </g>
    </g>
  </g>
</svg>
