<svg id="Group_15216" data-name="Group 15216" xmlns="http://www.w3.org/2000/svg" width="55.52" height="55.539" viewBox="0 0 55.52 55.539">
  <path id="Path_204265" data-name="Path 204265" d="M1484.42,600.908a5.532,5.532,0,1,0-5.533-5.533A5.539,5.539,0,0,0,1484.42,600.908Zm0-9.119a3.587,3.587,0,1,1-3.587,3.586A3.59,3.59,0,0,1,1484.42,591.789Z" transform="translate(-1456.659 -589.843)"/>
  <path id="Path_204266" data-name="Path 204266" d="M1471.733,660.174h15.382V638.163l2.574-1.379v-15.27a2.868,2.868,0,0,0-2.865-2.866h-14.8a2.869,2.869,0,0,0-2.865,2.866v15.27l2.574,1.379Zm-.628-24.556v-14.1a.92.92,0,0,1,.919-.92h14.8a.921.921,0,0,1,.919.92v14.1L1485.169,637v21.231H1480.4V643.565h-1.946v14.663h-4.772V637Z" transform="translate(-1451.664 -604.635)"/>
  <path id="Path_204267" data-name="Path 204267" d="M1526.2,640.022l3.221,2.3h-7.79v1.946h7.79l-3.221,2.3,1.131,1.583,6.8-4.859-6.8-4.859Z" transform="translate(-1478.612 -614.798)"/>
  <path id="Path_204268" data-name="Path 204268" d="M1521.6,617.041l5.509-5.508-.65,3.906,1.919.319,1.37-8.242-8.241,1.371.319,1.92,3.906-.65-5.508,5.509Z" transform="translate(-1477.885 -598.919)"/>
  <path id="Path_204269" data-name="Path 204269" d="M1521.823,675.993l-.319,1.92,8.241,1.37-1.371-8.241-1.919.319.65,3.906-5.509-5.508-1.376,1.376,5.509,5.509Z" transform="translate(-1477.885 -630.881)"/>
  <path id="Path_204270" data-name="Path 204270" d="M1441.124,646.573l-3.221-2.3h7.79v-1.946h-7.79l3.221-2.3-1.132-1.583-6.8,4.859,6.8,4.859Z" transform="translate(-1433.196 -614.798)"/>
  <path id="Path_204271" data-name="Path 204271" d="M1448.869,669.757l-5.508,5.509.65-3.906-1.92-.319-1.37,8.242,8.242-1.37-.319-1.92-3.907.649,5.509-5.509Z" transform="translate(-1437.06 -630.881)"/>
  <path id="Path_204272" data-name="Path 204272" d="M1444.009,615.438l-.649-3.906,5.509,5.508,1.376-1.376-5.509-5.508,3.906.649.319-1.92-8.242-1.37,1.371,8.241Z" transform="translate(-1437.059 -598.919)"/>
</svg>
