<svg id="Group_15214" data-name="Group 15214" xmlns="http://www.w3.org/2000/svg" width="57.7" height="55.539" viewBox="0 0 57.7 55.539">
  <path id="Path_204255" data-name="Path 204255" d="M1266.216,600.908a5.532,5.532,0,1,0-5.533-5.533A5.539,5.539,0,0,0,1266.216,600.908Zm0-9.119a3.587,3.587,0,1,1-3.587,3.586A3.591,3.591,0,0,1,1266.216,591.789Z" transform="translate(-1255.951 -589.843)"/>
  <path id="Path_204256" data-name="Path 204256" d="M1304.42,600.908a5.532,5.532,0,1,0-5.532-5.533A5.539,5.539,0,0,0,1304.42,600.908Zm0-9.119a3.587,3.587,0,1,1-3.586,3.586A3.59,3.59,0,0,1,1304.42,591.789Z" transform="translate(-1275.57 -589.843)"/>
  <path id="Path_204257" data-name="Path 204257" d="M1342.623,600.908a5.532,5.532,0,1,0-5.532-5.533A5.539,5.539,0,0,0,1342.623,600.908Zm0-9.119a3.587,3.587,0,1,1-3.586,3.586A3.59,3.59,0,0,1,1342.623,591.789Z" transform="translate(-1295.188 -589.843)"/>
  <path id="Path_204258" data-name="Path 204258" d="M1305.79,618.648h-14.8a2.847,2.847,0,0,1-3.784,0h-14.8a2.847,2.847,0,0,1-3.784,0h-14.8a2.869,2.869,0,0,0-2.865,2.866v15.27l2.574,1.379v22.012h15.382V638.163l1.6-.858,1.6.858v22.012H1287.5V638.163l1.6-.858,1.6.858v22.012h15.382V638.163l2.574-1.379v-15.27A2.869,2.869,0,0,0,1305.79,618.648ZM1266.966,637v21.231h-4.772V643.565h-1.946v14.663h-4.772V637l-2.574-1.379v-14.1a.921.921,0,0,1,.919-.92h14.8a.921.921,0,0,1,.919.92v14.1Zm18.585,0v21.231h-4.772V643.565h-1.946v14.663h-4.772V637l-2.574-1.379v-14.1a.921.921,0,0,1,.919-.92h14.8a.921.921,0,0,1,.919.92v14.1Zm21.159-1.379L1304.135,637v21.231h-4.772V643.565h-1.946v14.663h-4.772V637l-2.574-1.379v-14.1a.921.921,0,0,1,.919-.92h14.8a.921.921,0,0,1,.919.92Z" transform="translate(-1250.955 -604.635)"/>
</svg>
