<svg id="Group_15311" data-name="Group 15311" xmlns="http://www.w3.org/2000/svg" xmlns:xlink="http://www.w3.org/1999/xlink" width="53.81" height="56.672" viewBox="0 0 53.81 56.672">
  <defs>
    <clipPath id="clip-path">
      <path id="Path_204487" data-name="Path 204487" d="M1196.161,846h0c-.482,0-.978.014-1.459.028h0a28.341,28.341,0,0,0-26.9,28.308h0a28.344,28.344,0,0,0,28.364,28.336h0v-5.846a25.431,25.431,0,0,0,25.446-25.42h0a25.431,25.431,0,0,0-23.986-25.378h0c-.482-.014-.964-.028-1.459-.028Z" transform="translate(-1167.797 -846)" fill="none"/>
    </clipPath>
  </defs>
  <g id="Group_15310" data-name="Group 15310" transform="translate(0 0)">
    <path id="Path_204468" data-name="Path 204468" d="M1221.607,871.406h0a25.431,25.431,0,0,1-25.446,25.42v5.846a28.34,28.34,0,0,1-1.459-56.644c.482-.014.978-.028,1.459-.028s.978.014,1.459.028a25.431,25.431,0,0,1,23.986,25.378Z" transform="translate(-1167.797 -846)" fill="#eb4d53"/>
    <g id="Group_15309" data-name="Group 15309">
      <g id="Group_15308" data-name="Group 15308" clip-path="url(#clip-path)">
        <path id="Path_204469" data-name="Path 204469" d="M1221.236,1030.365h0a2.889,2.889,0,0,1-2.04-.849l-6.744-6.865a2.328,2.328,0,0,1,3.315-3.27l3.953,4.02.893-12.116a2.33,2.33,0,0,1,4.647.34l-1.176,16.093a2.846,2.846,0,0,1-2.848,2.647Z" transform="translate(-1201.627 -971.471)" fill="#f3795f"/>
        <path id="Path_204470" data-name="Path 204470" d="M1283.491,945.6h11.391a5.536,5.536,0,0,0,5.54-5.534V907.5h-16.931v38.1Z" transform="translate(-1256.784 -893.302)" fill="#4b3012"/>
        <path id="Path_204471" data-name="Path 204471" d="M1300.487,956.931h0a2.623,2.623,0,0,1-2.465-2.76l.51-8.733c.085-1.444,5.044-2.01,5.044-2.01l.2,1.628-.538,9.412a2.6,2.6,0,0,1-2.749,2.463Z" transform="translate(-1267.957 -920.938)" fill="#f69171"/>
        <path id="Path_204472" data-name="Path 204472" d="M1262.4,907.7h0c7,0,12.638-5.18,12.624-10.177l-.028-7.063a9,9,0,0,0-1.119-4.3l-15.5.057a10.048,10.048,0,0,0-.949,4.317s-.085,6.667.028,8.874c.255,4.7,1.714,6.723,4.945,8.294Z" transform="translate(-1236.714 -876.89)" fill="#f69171"/>
        <path id="Path_204473" data-name="Path 204473" d="M1277.848,951.29h0a.792.792,0,0,1,.68,1.189,3.532,3.532,0,0,1-6.121-.028.786.786,0,0,1,.694-1.175l4.746.014Z" transform="translate(-1248.18 -926.974)" fill="#eaefed"/>
        <path id="Path_204474" data-name="Path 204474" d="M1277.537,876.169h0v3.071a1.726,1.726,0,0,0,1.714,1.7h3.457l3.329-1.1a21.662,21.662,0,0,0,1.261-5.562,10.306,10.306,0,0,0-8.487-9.851c-4.335-.849-8.4.453-12.383,2.052l11.108,9.7Z" transform="translate(-1243.661 -859.963)" fill="#975e1c"/>
        <path id="Path_204475" data-name="Path 204475" d="M1294.036,926.379h0a.465.465,0,0,1-.4-.708,1.357,1.357,0,0,1,1.147-.637,1.333,1.333,0,0,1,1.133.637.461.461,0,0,1-.4.708Z" transform="translate(-1264.538 -906.79)" fill="#0a0f22"/>
        <path id="Path_204476" data-name="Path 204476" d="M1263.292,926.379h0a.469.469,0,0,1-.4-.708,1.358,1.358,0,0,1,1.148-.637,1.316,1.316,0,0,1,1.133.637.461.461,0,0,1-.4.708Z" transform="translate(-1240.892 -906.79)" fill="#0a0f22"/>
        <path id="Path_204477" data-name="Path 204477" d="M1255.021,868.829h0l-4.916.877a6.7,6.7,0,0,0-5.525,6.6v.34a3.623,3.623,0,0,0,3.627,3.623h12.85v-4.543a8.221,8.221,0,0,0-1.629-4.883l-.3-.4a4.209,4.209,0,0,0-4.109-1.614Z" transform="translate(-1226.855 -863.508)" fill="#975e1c"/>
        <path id="Path_204478" data-name="Path 204478" d="M1337.334,926.592h0l.808.509V907.5h-5.611v10.346a10.39,10.39,0,0,0,4.8,8.747Z" transform="translate(-1294.504 -893.302)" fill="#975e1c"/>
        <path id="Path_204479" data-name="Path 204479" d="M1326.965,921.907h0a2.532,2.532,0,0,0-2.536,2.533v2.519h2.536a2.526,2.526,0,1,0,0-5.053Z" transform="translate(-1288.272 -904.385)" fill="#f69171"/>
        <path id="Path_204480" data-name="Path 204480" d="M1264.135,900.086h0l2.38,4.175h-2.848v-4.048a.251.251,0,0,1,.468-.127Z" transform="translate(-1241.536 -887.504)" fill="#4b3012"/>
        <path id="Path_204481" data-name="Path 204481" d="M1256.132,992.705h0l18.107,6.794,2.366-9.356a2.637,2.637,0,0,0-1.233-2.916l-8.189-4.741-12.355,6.454.907,1.345a2.93,2.93,0,0,1,.4,2.42Z" transform="translate(-1234.738 -950.98)" fill="#f69171"/>
        <path id="Path_204482" data-name="Path 204482" d="M1257.742,996.966h0l1.332,2.406-3.627,3c-.156.467-.312.92-.482,1.345a11.73,11.73,0,0,0-.921,4.5v4.656a5.942,5.942,0,0,0,2.2,4.6,21.06,21.06,0,0,1-1.516,5.308c-.1.255-.184.467-.241.637a10.334,10.334,0,0,0-.382,5.124,9.815,9.815,0,0,0,6.857,7.657,10.807,10.807,0,0,0,3.061.439l2.663.014c6.716,0,11.179-7.671,7.538-12.951a12.309,12.309,0,0,1-2.1-5.591,5.179,5.179,0,0,0,2.083-5.1l-.652-3.85-5.214-9.37,4.69-3.864-1.516-.878-2.536,2.081a5.078,5.078,0,0,1-3.23,1.16h-4.69a1.18,1.18,0,0,1-1.034-.609l-.921-1.67a2.974,2.974,0,0,0-1.36.948Z" transform="translate(-1234.053 -960.647)" fill="#3f99a9"/>
        <path id="Path_204483" data-name="Path 204483" d="M1277.25,1086.283h-11.958a5.128,5.128,0,0,1-3.188-1.1,1.094,1.094,0,1,1,1.36-1.713,2.944,2.944,0,0,0,1.828.623h11.958a1.094,1.094,0,0,1,1.091,1.1,1.082,1.082,0,0,1-1.091,1.09Z" transform="translate(-1240.016 -1028.465)" fill="#157b89"/>
        <path id="Path_204484" data-name="Path 204484" d="M1335.621,1022.951Zm1.686,2.265h0a2.862,2.862,0,0,1-2.437-1.373l-2.933-4.756a2.326,2.326,0,0,1,.78-3.2c.113-.071.227-.127.34-.184l-3.542-10.021a2.334,2.334,0,0,1,4.406-1.543l6.092,17.253a2.844,2.844,0,0,1-1.473,3.539,2.754,2.754,0,0,1-1.233.283Z" transform="translate(-1292.082 -966.435)" fill="#f69171"/>
        <path id="Path_204485" data-name="Path 204485" d="M1206.11,1053.84h0a4.8,4.8,0,0,0-8.742-2.364,5.434,5.434,0,0,0-.567,1.061,1.7,1.7,0,0,0-.071.2,2.824,2.824,0,0,0,.51,2.831,2.885,2.885,0,0,0,1.148.793,2.83,2.83,0,0,0,3.627-1.67,1.244,1.244,0,0,1,1.2-.821,3.617,3.617,0,0,0,.4-.014h2.494v-.014Z" transform="translate(-1189.916 -1002.433)" fill="#f3795f"/>
        <path id="Path_204486" data-name="Path 204486" d="M1329.722,1053.84h0a4.8,4.8,0,0,0-8.742-2.364,5.378,5.378,0,0,0-.552,1.061c-.028.071-.057.141-.085.2a2.825,2.825,0,0,0,.51,2.831,2.937,2.937,0,0,0,1.162.793,2.815,2.815,0,0,0,3.613-1.67,1.264,1.264,0,0,1,1.218-.821,3.489,3.489,0,0,0,.383-.014h2.493v-.014Z" transform="translate(-1284.994 -1002.433)" fill="#f69171"/>
      </g>
    </g>
  </g>
</svg>
