<svg id="Sherlock-logo" xmlns="http://www.w3.org/2000/svg" xmlns:xlink="http://www.w3.org/1999/xlink" width="386.855" height="132.742" viewBox="0 0 386.855 132.742">
  <defs>
    <clipPath id="clip-path">
      <path id="Path_203360" data-name="Path 203360" d="M859.25,3509.588a42.591,42.591,0,0,1-42.6,42.584v9.8a47.492,47.492,0,0,1-2.437-94.92c.8-.039,1.621-.065,2.437-.065s1.634.026,2.451.065A42.606,42.606,0,0,1,859.25,3509.588Z" fill="none"/>
    </clipPath>
  </defs>
  <path id="Path_203337" data-name="Path 203337" d="M877.9,3598.326q-7.066,0-10.708-2.813a8.854,8.854,0,0,1-3.641-7.354,4.668,4.668,0,0,1,1.37-3.5,5.249,5.249,0,0,1,3.822-1.333,17.713,17.713,0,0,0,1.154,5.624,9.615,9.615,0,0,0,3.1,4.219,8.684,8.684,0,0,0,5.479,1.623q4.83,0,7.572-2.345a8.381,8.381,0,0,0,2.74-6.741,9.007,9.007,0,0,0-1.045-4.507,10.468,10.468,0,0,0-3.462-3.425,39.848,39.848,0,0,0-6.669-3.317q-6.707-2.739-9.988-6.381a13.833,13.833,0,0,1-3.281-9.626,11.9,11.9,0,0,1,2.055-7.031,13.058,13.058,0,0,1,5.625-4.472,20.206,20.206,0,0,1,8.113-1.55q6.417,0,9.95,2.451t3.533,5.626a4.139,4.139,0,0,1-1.55,3.5,6.631,6.631,0,0,1-4.146,1.189,12.618,12.618,0,0,0-.757-4.326,7.569,7.569,0,0,0-2.523-3.462,7.647,7.647,0,0,0-4.8-1.37,8.941,8.941,0,0,0-6.489,2.236,7.951,7.951,0,0,0-2.307,5.986,10.331,10.331,0,0,0,1.045,4.866,9.6,9.6,0,0,0,3.5,3.534,44.732,44.732,0,0,0,6.634,3.281,31.289,31.289,0,0,1,9.879,5.984,11.827,11.827,0,0,1,3.534,8.941q0,6.852-4.8,10.673T877.9,3598.326Z" transform="translate(-767.425 -3465.583)" fill="#262626"/>
  <path id="Path_203338" data-name="Path 203338" d="M899.888,3597.6v-3.028h.576a8.955,8.955,0,0,0,4.184-.9q1.73-.9,1.73-4.289v-38.65q0-3.174-1.767-4.039a9.321,9.321,0,0,0-4.147-.865h-.576V3542.8h13.267v15.865q0,1.3-.072,2.739t-.216,3.39h.36a11.009,11.009,0,0,1,10.6-6.563q6.2,0,9.481,3.354t3.283,10.779v17.019q0,3.39,1.549,4.289a7.883,7.883,0,0,0,4,.9h.216v3.028H929.812v-24.876a12.839,12.839,0,0,0-1.767-7.284q-1.766-2.595-6.164-2.6-4.473,0-6.6,3.172a15.083,15.083,0,0,0-2.127,8.51v15.215q0,3.174,1.767,4a9.673,9.673,0,0,0,4.147.829h.216v3.028Z" transform="translate(-767.425 -3465.583)" fill="#262626"/>
  <path id="Path_203339" data-name="Path 203339" d="M964.351,3598.326q-7.86,0-12.295-5.192t-4.434-14.566q0-10.1,4.146-15.215t11.862-5.12q6.993,0,11,4.327t4,12.908v3.316H954.617q.141,7.861,2.847,11.43t7.9,3.569a12.352,12.352,0,0,0,6.381-1.551,11.789,11.789,0,0,0,3.931-3.5,2.248,2.248,0,0,1,.938.866,2.8,2.8,0,0,1,.432,1.586,5.019,5.019,0,0,1-1.37,3.1,10.714,10.714,0,0,1-4.219,2.849A18.5,18.5,0,0,1,964.351,3598.326Zm-9.59-23.436h16.585a20.733,20.733,0,0,0-1.767-9.23,6.256,6.256,0,0,0-6.094-3.533,7.012,7.012,0,0,0-6.165,3.28Q955.121,3568.692,954.761,3574.89Z" transform="translate(-767.425 -3465.583)" fill="#262626"/>
  <path id="Path_203340" data-name="Path 203340" d="M983.892,3597.6v-3.028h.216a8.94,8.94,0,0,0,4.181-.9q1.731-.9,1.732-4.289v-22.5q0-3.171-1.767-4.038a9.342,9.342,0,0,0-4.146-.865h-.216v-3.028h11.1l1.372,7.139h.36a31.462,31.462,0,0,1,2.018-3.931,8.4,8.4,0,0,1,2.885-2.848,9.68,9.68,0,0,1,4.975-1.082q3.965,0,5.878,1.37a4.513,4.513,0,0,1,1.911,3.9,4.8,4.8,0,0,1-1.551,3.676q-1.551,1.446-5.157,1.442a8.141,8.141,0,0,0-.864-4.289,3.254,3.254,0,0,0-2.957-1.335,4.3,4.3,0,0,0-3.388,1.586,11.528,11.528,0,0,0-2.164,4.038,29.4,29.4,0,0,0-1.154,5.085,34.887,34.887,0,0,0-.36,4.723v11.321q0,3.174,1.767,4a9.657,9.657,0,0,0,4.145.829h2.019v3.028Z" transform="translate(-767.425 -3465.583)" fill="#262626"/>
  <path id="Path_203341" data-name="Path 203341" d="M1015.692,3597.6v-3.028h.936a8.951,8.951,0,0,0,4.183-.9q1.731-.9,1.73-4.289v-38.65q0-3.174-1.766-4.039a9.324,9.324,0,0,0-4.147-.865h-.936V3542.8h13.627v46.583q0,3.39,1.732,4.289a8.941,8.941,0,0,0,4.182.9h.937v3.028Z" transform="translate(-767.425 -3465.583)" fill="#262626"/>
  <g id="Group_14400" data-name="Group 14400" transform="translate(-767.425 -3465.583)">
    <path id="Path_203342" data-name="Path 203342" d="M1057.152,3562.055q-5.409,0-7.607,4.039t-2.2,12.113q0,8.076,2.234,12.223t7.644,4.146q5.407,0,7.608-4.146t2.2-12.223q0-8.075-2.236-12.113T1057.152,3562.055Z" fill="none"/>
    <path id="Path_203343" data-name="Path 203343" d="M1069.555,3563.173a14.914,14.914,0,0,0-1.344-1.294,4.832,4.832,0,0,0,1.057-.349,15,15,0,0,0,2.205-1.569,4.633,4.633,0,0,1,2.446-1.072,6.26,6.26,0,0,0-3.849-.15,28.329,28.329,0,0,1-3.83.807,7.518,7.518,0,0,1-3.445-.575,19.535,19.535,0,0,0-5.5-.738,21.79,21.79,0,0,0-5.7.7h0a7.538,7.538,0,0,1-3.587.618,28.363,28.363,0,0,1-3.83-.807,6.261,6.261,0,0,0-3.849.15,4.63,4.63,0,0,1,2.446,1.072,15.015,15.015,0,0,0,2.206,1.569,4.8,4.8,0,0,0,.995.329,13.164,13.164,0,0,0-1.335,1.314q-4.291,4.941-4.29,15.034,0,10.167,4.471,15.144t12.258,4.975q8.292,0,12.619-4.975t4.326-15.144Q1074.025,3568.114,1069.555,3563.173Zm-4.723,27.257q-2.2,4.148-7.608,4.146t-7.644-4.146q-2.235-4.146-2.234-12.223t2.2-12.113q2.2-4.038,7.607-4.039t7.643,4.039q2.235,4.038,2.236,12.113T1064.832,3590.43Z" fill="#f66"/>
  </g>
  <path id="Path_203344" data-name="Path 203344" d="M1097.677,3598.326a17.406,17.406,0,0,1-8.509-2.019,13.978,13.978,0,0,1-5.8-6.381q-2.127-4.362-2.127-11.43,0-7.716,2.127-12.151a13.024,13.024,0,0,1,5.733-6.273,17.837,17.837,0,0,1,8.221-1.839,22.233,22.233,0,0,1,5.912.794,11.8,11.8,0,0,1,4.76,2.451,5.271,5.271,0,0,1,1.874,4.11,3.839,3.839,0,0,1-1.622,3.5,8.919,8.919,0,0,1-4.8,1.047,12.639,12.639,0,0,0-1.261-5.842q-1.263-2.451-4.867-2.451a8.139,8.139,0,0,0-4.8,1.442,9.277,9.277,0,0,0-3.172,5.047,35.634,35.634,0,0,0-1.117,10.1q0,7.642,2.559,11.428t8.328,3.787a11.746,11.746,0,0,0,5.877-1.407,9.34,9.34,0,0,0,3.713-3.641,3.443,3.443,0,0,1,1.226,2.812,4.942,4.942,0,0,1-1.37,3.245,10.06,10.06,0,0,1-4.073,2.632A19.1,19.1,0,0,1,1097.677,3598.326Z" transform="translate(-767.425 -3465.583)" fill="#262626"/>
  <path id="Path_203345" data-name="Path 203345" d="M1113.323,3597.6v-3.028h.576a8.951,8.951,0,0,0,4.183-.9q1.731-.9,1.73-4.289v-38.65q0-3.174-1.766-4.039a9.323,9.323,0,0,0-4.147-.865h-.576V3542.8h13.267v27.834c0,.674-.011,1.514-.035,2.524s-.061,2.02-.109,3.028-.1,2.189-.144,3.534l9.013-9.88a29.136,29.136,0,0,0,3.137-4,4.992,4.992,0,0,0,.829-2.416,1.12,1.12,0,0,0-.866-1.19,10.306,10.306,0,0,0-2.667-.252v-3.028h15.936v3.028a8.362,8.362,0,0,0-4.9,1.766,33.3,33.3,0,0,0-5.264,4.941l-5.048,5.7,9.59,14.277a19.234,19.234,0,0,0,3.715,4.4,6.54,6.54,0,0,0,4.29,1.515h.216v3.028h-1.01a51.707,51.707,0,0,1-5.228-.216,10.4,10.4,0,0,1-3.46-.9,8.789,8.789,0,0,1-2.668-2.091,29.4,29.4,0,0,1-2.777-3.785l-7.211-11.322-5.336,3.966v6.49q0,3.174,1.767,4a9.672,9.672,0,0,0,4.147.829h.216v3.028Z" transform="translate(-767.425 -3465.583)" fill="#262626"/>
  <g id="Group_14406" data-name="Group 14406" transform="translate(-767.425 -3465.583)">
    <g id="Group_14401" data-name="Group 14401">
      <path id="Path_203346" data-name="Path 203346" d="M859.25,3509.588a42.591,42.591,0,0,1-42.6,42.584v9.8a47.492,47.492,0,0,1-2.437-94.92c.8-.039,1.621-.065,2.437-.065s1.634.026,2.451.065A42.606,42.606,0,0,1,859.25,3509.588Z" fill="#f5dfd3"/>
      <path id="Path_203347" data-name="Path 203347" d="M859.475,3509.588a45,45,0,0,1-11.934,30.884A44.188,44.188,0,0,1,833.6,3550.5a42.543,42.543,0,0,1-16.951,3.813l2.145-2.146c.051,3.268.119,6.536.119,9.8v.056a2.21,2.21,0,0,1-2.211,2.21h-.054a53.314,53.314,0,0,1-13.973-1.959,29.012,29.012,0,0,1-3.356-1.127,26.125,26.125,0,0,1-3.266-1.361l-3.175-1.564-3.013-1.856a49.225,49.225,0,0,1-18.081-21.144,46.8,46.8,0,0,1-3.85-13.45,53.922,53.922,0,0,1-.513-6.977c.005-1.165.115-2.33.17-3.493l.107-1.745.27-1.728a48.746,48.746,0,0,1,11.437-25.016c12.022-14.113,32.59-20.586,50.172-14.652a42.922,42.922,0,0,1,12.124,6.3,45.573,45.573,0,0,1,9.5,9.709A44.136,44.136,0,0,1,859.475,3509.588Zm-.45,0c-.131-8.912-2.774-17.975-8.355-25.018a42.573,42.573,0,0,0-9.607-9.205,41.763,41.763,0,0,0-11.974-5.619,43.947,43.947,0,0,0-25.989.516,49.022,49.022,0,0,0-6.121,2.383,49.918,49.918,0,0,0-5.669,3.3,45.793,45.793,0,0,0-19.981,32.342l-.224,1.612-.067,1.626c-.029,1.084-.116,2.168-.1,3.251a47.8,47.8,0,0,0,.609,6.463,43.008,43.008,0,0,0,3.838,12.321,45.789,45.789,0,0,0,16.932,18.991,47.112,47.112,0,0,0,24.336,7.156l-2.264,2.264c0-3.267.067-6.535.119-9.8v-.061a2.113,2.113,0,0,1,2.145-2.085,43.338,43.338,0,0,0,15.645-2.673,41.146,41.146,0,0,0,23.227-21.667A40.768,40.768,0,0,0,859.025,3509.588Z" fill="#f66"/>
    </g>
    <g id="Group_14405" data-name="Group 14405">
      <g id="Group_14404" data-name="Group 14404" clip-path="url(#clip-path)">
        <path id="Path_203348" data-name="Path 203348" d="M842.883,3561.4c-2.063,3.418-17.4,6.32-30.148-1.017s-19.927-18.778-16.028-25.554,17.4-6.32,30.148,1.017S844.987,3557.916,842.883,3561.4Z" fill="#f66"/>
        <path id="Path_203349" data-name="Path 203349" d="M861.6,3549.4a.806.806,0,0,1-.543.764c-.127.02-.254.033-.382.047-4.944.542-11.06.7-18.629.75q-3.5.02-7.43.02a47.045,47.045,0,0,1-46.471-40.777v-4.4a26.951,26.951,0,0,1,53.9,0v17.129a27.047,27.047,0,0,0,18.716,25.651q.242.079.5.161A.806.806,0,0,1,861.6,3549.4Z" fill="#f66"/>
        <g id="Group_14403" data-name="Group 14403">
          <g id="Group_14402" data-name="Group 14402">
            <path id="Path_203350" data-name="Path 203350" d="M837.579,3497.817q0,1.587-.147,3.127c-1.269,13.766-10.84,24.458-22.461,24.458s-21.2-10.7-22.464-24.466c-.1-1.021-.143-2.064-.143-3.119,0-.852.033-1.692.095-2.525.045-.207.1-.413.159-.62,2.006-6.964,9.866-10.81,17.553-8.594a15.774,15.774,0,0,1,4.8,2.312,15.775,15.775,0,0,1,4.8-2.312c7.687-2.216,15.544,1.63,17.55,8.594.059.207.114.417.158.623Q837.578,3496.54,837.579,3497.817Z" fill="#f5dfd3"/>
            <path id="Path_203351" data-name="Path 203351" d="M792.507,3500.936c-.1-1.021-.143-2.064-.143-3.119,0-.852.033-1.692.095-2.525" fill="#fff"/>
            <path id="Path_203352" data-name="Path 203352" d="M837.483,3495.295q.095,1.245.1,2.522,0,1.587-.147,3.127" fill="#fff"/>
          </g>
          <path id="Path_203353" data-name="Path 203353" d="M840.384,3492.043c-2.441-.564-4.387-1.357-6.5-1.948-4.652-1.3-10.735-.676-14.285,2.014a1.547,1.547,0,0,1-1.592,0,8.938,8.938,0,0,0-6.063,0,1.547,1.547,0,0,1-1.592,0c-3.55-2.69-9.633-3.315-14.285-2.014-2.117.591-4.063,1.384-6.5,1.948a.38.38,0,0,0-.293.37v1.537a.378.378,0,0,0,.275.365,1.97,1.97,0,0,1,1.482,1.564c.687,8.779,4.636,11.146,9.919,10.889,6.073-.292,9.924-3.675,11.21-10.626a1.289,1.289,0,0,0-.038-.6c-.234-.8.2-2.041,2.857-2.041s3.092,1.245,2.858,2.041a1.29,1.29,0,0,0-.038.6c1.286,6.951,5.137,10.334,11.21,10.626,5.283.257,9.232-2.11,9.919-10.889a1.97,1.97,0,0,1,1.482-1.564.378.378,0,0,0,.275-.365v-1.537A.38.38,0,0,0,840.384,3492.043Zm-31.354,9.232a9.6,9.6,0,0,1-11.632,3.982c-2.669-1.03-4.575-3.5-4.454-9.67.126-5.367,10.357-6.32,15.105-3.61a4.8,4.8,0,0,1,2.381,3.775A9.358,9.358,0,0,1,809.03,3501.275Zm23.515,3.982a9.6,9.6,0,0,1-11.632-3.982,9.351,9.351,0,0,1-1.4-5.523,4.8,4.8,0,0,1,2.381-3.775c4.748-2.71,14.979-1.757,15.105,3.61C837.12,3501.757,835.214,3504.227,832.545,3505.257Z" fill="#262626"/>
          <path id="Path_203354" data-name="Path 203354" d="M803.258,3494.008a3.306,3.306,0,1,1-5.19,1.238A4.516,4.516,0,0,1,803.258,3494.008Z" fill="#262626"/>
          <circle id="Ellipse_369" data-name="Ellipse 369" cx="0.691" cy="0.691" r="0.691" transform="translate(802.939 3495.531)" fill="#fff"/>
          <path id="Path_203355" data-name="Path 203355" d="M826.433,3494.008a3.306,3.306,0,1,0,5.19,1.238A4.519,4.519,0,0,0,826.433,3494.008Z" fill="#262626"/>
          <circle id="Ellipse_370" data-name="Ellipse 370" cx="0.691" cy="0.691" r="0.691" transform="translate(829.205 3495.531)" fill="#fff"/>
          <path id="Path_203356" data-name="Path 203356" d="M814.971,3497.5c4.306,2.686,2.49,10.021.918,15.183a.959.959,0,0,1-1.835,0c-1.572-5.162-3.388-12.5.917-15.183Zm0,1.462c3.061,2.528,1.467,7.579,0,10.657v-10.657Z" fill="#262626" fill-rule="evenodd"/>
        </g>
        <path id="Path_203357" data-name="Path 203357" d="M857.527,3567.635c-2.63,1.353-17.949-4.516-24.4-17.739s-5.978-26.72,1.048-30.147,17.95,4.516,24.4,17.739S860.4,3566.157,857.527,3567.635Z" fill="#f66"/>
        <path id="Path_203358" data-name="Path 203358" d="M825.339,3480.92a11.19,11.19,0,0,0,5.322.917,42.375,42.375,0,0,0,5.68-1.2,9.284,9.284,0,0,1,5.709.223,6.849,6.849,0,0,0-3.628,1.59,22.282,22.282,0,0,1-3.271,2.326,9.128,9.128,0,0,1-8.012-.334" fill="#f66" fill-rule="evenodd"/>
        <path id="Path_203359" data-name="Path 203359" d="M804.841,3480.92a11.184,11.184,0,0,1-5.321.917,42.341,42.341,0,0,1-5.68-1.2,9.284,9.284,0,0,0-5.709.223,6.852,6.852,0,0,1,3.628,1.59,22.227,22.227,0,0,0,3.271,2.326,9.125,9.125,0,0,0,8.011-.334" fill="#f66" fill-rule="evenodd"/>
      </g>
    </g>
    <path id="Path_203361" data-name="Path 203361" d="M768.941,3514.489a51.235,51.235,0,0,1,1.588-12.98,47.244,47.244,0,0,1,5.058-12.119,48.25,48.25,0,0,1,18.909-18.13,50.711,50.711,0,0,1,6.074-2.744,51.225,51.225,0,0,1,6.429-1.8,45.73,45.73,0,0,1,13.317-1,44.2,44.2,0,0,1,24.746,9.8,46.716,46.716,0,0,1,9.146,10,46.032,46.032,0,0,1,5.684,12.376,42.98,42.98,0,0,1-17.9,47.824,45.866,45.866,0,0,1-12.21,5.464,45.036,45.036,0,0,1-13.134,1.219.227.227,0,0,1-.211-.239.234.234,0,0,1,.211-.211,49.647,49.647,0,0,0,12.517-2.726,43.811,43.811,0,0,0,11.025-6.072,42.22,42.22,0,0,0,8.674-8.911,38.273,38.273,0,0,0,5.686-10.929,37.86,37.86,0,0,0,2.273-12.049,39.369,39.369,0,0,0-1.233-12.21,41.778,41.778,0,0,0-4.772-11.362,42.939,42.939,0,0,0-8.064-9.411,40.925,40.925,0,0,0-22.673-9.649,42.942,42.942,0,0,0-12.576.62,41.888,41.888,0,0,0-11.986,4.011,46.8,46.8,0,0,0-24.128,28.493,50.556,50.556,0,0,0-2,12.737v.014a.225.225,0,0,1-.449-.014Z" fill="#f66"/>
  </g>
</svg>
